<?xml version="1.0" encoding="utf-8" standalone="no"?>
<!DOCTYPE svg PUBLIC "-//W3C//DTD SVG 1.1//EN"
  "http://www.w3.org/Graphics/SVG/1.1/DTD/svg11.dtd">
<svg xmlns:xlink="http://www.w3.org/1999/xlink" width="514.129915pt" height="295.462175pt" viewBox="0 0 514.129915 295.462175" xmlns="http://www.w3.org/2000/svg" version="1.1">
 <metadata>
  <rdf:RDF xmlns:dc="http://purl.org/dc/elements/1.1/" xmlns:cc="http://creativecommons.org/ns#" xmlns:rdf="http://www.w3.org/1999/02/22-rdf-syntax-ns#">
   <cc:Work>
    <dc:type rdf:resource="http://purl.org/dc/dcmitype/StillImage"/>
    <dc:date>2026-05-26T01:35:59.496667</dc:date>
    <dc:format>image/svg+xml</dc:format>
    <dc:creator>
     <cc:Agent>
      <dc:title>Matplotlib v3.10.0, https://matplotlib.org/</dc:title>
     </cc:Agent>
    </dc:creator>
   </cc:Work>
  </rdf:RDF>
 </metadata>
 <defs>
  <style type="text/css">*{stroke-linejoin: round; stroke-linecap: butt}</style>
 </defs>
 <g id="figure_1">
  <g id="patch_1">
   <path d="M 0 295.462175
L 514.129915 295.462175
L 514.129915 0
L 0 0
z
" style="fill: #ffffff"/>
  </g>
  <g id="axes_1">
   <g id="patch_2">
    <path d="M 42.91875 126.937716
L 225.48261 126.937716
L 225.48261 32.62208
L 42.91875 32.62208
z
" style="fill: #ffffff"/>
   </g>
   <g id="line2d_1">
    <path d="M 135.891086 59.201941
L 201.816924 59.201941
" clip-path="url(#p9787d9c8f0)" style="fill: none; stroke: #b9c2cb; stroke-width: 2.2; stroke-linecap: square"/>
   </g>
   <g id="line2d_2">
    <path d="M 76.726872 102.072685
L 97.011746 102.072685
" clip-path="url(#p9787d9c8f0)" style="fill: none; stroke: #b9c2cb; stroke-width: 2.2; stroke-linecap: square"/>
   </g>
   <g id="matplotlib.axis_1">
    <g id="xtick_1">
     <g id="line2d_3">
      <path d="M 42.91875 126.937716
L 42.91875 32.62208
" clip-path="url(#p9787d9c8f0)" style="fill: none; stroke: #e5e9ed; stroke-width: 0.8; stroke-linecap: square"/>
     </g>
     <g id="line2d_4">
      <defs>
       <path id="md16500b199" d="M 0 0
L 0 3.5
" style="stroke: #000000; stroke-width: 0.8"/>
      </defs>
      <g>
       <use xlink:href="#md16500b199" x="42.91875" y="126.937716" style="stroke: #000000; stroke-width: 0.8"/>
      </g>
     </g>
     <g id="text_1">
      <text style="font-size: 8px; font-family: 'Nimbus Sans'; text-anchor: middle" x="42.91875" y="139.770216" transform="rotate(-0 42.91875 139.770216)">0</text>
     </g>
    </g>
    <g id="xtick_2">
     <g id="line2d_5">
      <path d="M 76.726872 126.937716
L 76.726872 32.62208
" clip-path="url(#p9787d9c8f0)" style="fill: none; stroke: #e5e9ed; stroke-width: 0.8; stroke-linecap: square"/>
     </g>
     <g id="line2d_6">
      <g>
       <use xlink:href="#md16500b199" x="76.726872" y="126.937716" style="stroke: #000000; stroke-width: 0.8"/>
      </g>
     </g>
     <g id="text_2">
      <text style="font-size: 8px; font-family: 'Nimbus Sans'; text-anchor: middle" x="76.726872" y="139.770216" transform="rotate(-0 76.726872 139.770216)">2</text>
     </g>
    </g>
    <g id="xtick_3">
     <g id="line2d_7">
      <path d="M 110.534994 126.937716
L 110.534994 32.62208
" clip-path="url(#p9787d9c8f0)" style="fill: none; stroke: #e5e9ed; stroke-width: 0.8; stroke-linecap: square"/>
     </g>
     <g id="line2d_8">
      <g>
       <use xlink:href="#md16500b199" x="110.534994" y="126.937716" style="stroke: #000000; stroke-width: 0.8"/>
      </g>
     </g>
     <g id="text_3">
      <text style="font-size: 8px; font-family: 'Nimbus Sans'; text-anchor: middle" x="110.534994" y="139.770216" transform="rotate(-0 110.534994 139.770216)">4</text>
     </g>
    </g>
    <g id="xtick_4">
     <g id="line2d_9">
      <path d="M 144.343117 126.937716
L 144.343117 32.62208
" clip-path="url(#p9787d9c8f0)" style="fill: none; stroke: #e5e9ed; stroke-width: 0.8; stroke-linecap: square"/>
     </g>
     <g id="line2d_10">
      <g>
       <use xlink:href="#md16500b199" x="144.343117" y="126.937716" style="stroke: #000000; stroke-width: 0.8"/>
      </g>
     </g>
     <g id="text_4">
      <text style="font-size: 8px; font-family: 'Nimbus Sans'; text-anchor: middle" x="144.343117" y="139.770216" transform="rotate(-0 144.343117 139.770216)">6</text>
     </g>
    </g>
    <g id="xtick_5">
     <g id="line2d_11">
      <path d="M 178.151239 126.937716
L 178.151239 32.62208
" clip-path="url(#p9787d9c8f0)" style="fill: none; stroke: #e5e9ed; stroke-width: 0.8; stroke-linecap: square"/>
     </g>
     <g id="line2d_12">
      <g>
       <use xlink:href="#md16500b199" x="178.151239" y="126.937716" style="stroke: #000000; stroke-width: 0.8"/>
      </g>
     </g>
     <g id="text_5">
      <text style="font-size: 8px; font-family: 'Nimbus Sans'; text-anchor: middle" x="178.151239" y="139.770216" transform="rotate(-0 178.151239 139.770216)">8</text>
     </g>
    </g>
    <g id="xtick_6">
     <g id="line2d_13">
      <path d="M 211.959361 126.937716
L 211.959361 32.62208
" clip-path="url(#p9787d9c8f0)" style="fill: none; stroke: #e5e9ed; stroke-width: 0.8; stroke-linecap: square"/>
     </g>
     <g id="line2d_14">
      <g>
       <use xlink:href="#md16500b199" x="211.959361" y="126.937716" style="stroke: #000000; stroke-width: 0.8"/>
      </g>
     </g>
     <g id="text_6">
      <text style="font-size: 8px; font-family: 'Nimbus Sans'; text-anchor: middle" x="211.959361" y="139.770216" transform="rotate(-0 211.959361 139.770216)">10</text>
     </g>
    </g>
    <g id="text_7">
     <text style="font-size: 9px; font-family: 'Nimbus Sans'; text-anchor: middle" x="134.20068" y="152.128966" transform="rotate(-0 134.20068 152.128966)">Constructive user turns (%)</text>
    </g>
   </g>
   <g id="matplotlib.axis_2">
    <g id="ytick_1">
     <g id="line2d_15"/>
     <g id="text_8">
      <text style="font-size: 8px; font-family: 'Nimbus Sans'; text-anchor: end" x="40.91875" y="62.165691" transform="rotate(-0 40.91875 62.165691)">WC coding</text>
     </g>
    </g>
    <g id="ytick_2">
     <g id="line2d_16"/>
     <g id="text_9">
      <text style="font-size: 8px; font-family: 'Nimbus Sans'; text-anchor: end" x="40.91875" y="105.036435" transform="rotate(-0 40.91875 105.036435)">WC writing</text>
     </g>
    </g>
   </g>
   <g id="patch_3">
    <path d="M 42.91875 126.937716
L 225.48261 126.937716
" style="fill: none; stroke: #000000; stroke-width: 0.75; stroke-linejoin: miter; stroke-linecap: square"/>
   </g>
   <g id="PathCollection_1">
    <defs>
     <path id="mf8ec694720" d="M 0 3.807887
C 1.009863 3.807887 1.978501 3.406664 2.692582 2.692582
C 3.406664 1.978501 3.807887 1.009863 3.807887 0
C 3.807887 -1.009863 3.406664 -1.978501 2.692582 -2.692582
C 1.978501 -3.406664 1.009863 -3.807887 0 -3.807887
C -1.009863 -3.807887 -1.978501 -3.406664 -2.692582 -2.692582
C -3.406664 -1.978501 -3.807887 -1.009863 -3.807887 0
C -3.807887 1.009863 -3.406664 1.978501 -2.692582 2.692582
C -1.978501 3.406664 -1.009863 3.807887 0 3.807887
z
" style="stroke: #ffffff; stroke-width: 0.8"/>
    </defs>
    <g clip-path="url(#p9787d9c8f0)">
     <use xlink:href="#mf8ec694720" x="135.891086" y="59.201941" style="fill: #b8c4cf; stroke: #ffffff; stroke-width: 0.8"/>
    </g>
   </g>
   <g id="PathCollection_2">
    <defs>
     <path id="m954a2ff612" d="M 0 3.807887
C 1.009863 3.807887 1.978501 3.406664 2.692582 2.692582
C 3.406664 1.978501 3.807887 1.009863 3.807887 0
C 3.807887 -1.009863 3.406664 -1.978501 2.692582 -2.692582
C 1.978501 -3.406664 1.009863 -3.807887 0 -3.807887
C -1.009863 -3.807887 -1.978501 -3.406664 -2.692582 -2.692582
C -3.406664 -1.978501 -3.807887 -1.009863 -3.807887 0
C -3.807887 1.009863 -3.406664 1.978501 -2.692582 2.692582
C -1.978501 3.406664 -1.009863 3.807887 0 3.807887
z
" style="stroke: #ffffff; stroke-width: 0.8"/>
    </defs>
    <g clip-path="url(#p9787d9c8f0)">
     <use xlink:href="#m954a2ff612" x="201.816924" y="59.201941" style="fill: #2e7c6b; stroke: #ffffff; stroke-width: 0.8"/>
    </g>
   </g>
   <g id="text_10">
    <text style="font-size: 7.2px; font-family: 'Nimbus Sans'; text-anchor: middle; fill: #5d6874" x="135.891086" y="71.330857" transform="rotate(-0 135.891086 71.330857)">5.5</text>
   </g>
   <g id="text_11">
    <text style="font-size: 7.2px; font-family: 'Nimbus Sans'; text-anchor: middle; fill: #17212b" x="201.816924" y="50.7529" transform="rotate(-0 201.816924 50.7529)">9.4</text>
   </g>
   <g id="text_12">
    <text style="font-size: 8px; font-family: 'Nimbus Sans'; text-anchor: start; fill: #17212b" x="209.119479" y="61.246316" transform="rotate(-0 209.119479 61.246316)">+3.9 pp</text>
   </g>
   <g id="PathCollection_3">
    <g clip-path="url(#p9787d9c8f0)">
     <use xlink:href="#mf8ec694720" x="76.726872" y="102.072685" style="fill: #b8c4cf; stroke: #ffffff; stroke-width: 0.8"/>
    </g>
   </g>
   <g id="PathCollection_4">
    <g clip-path="url(#p9787d9c8f0)">
     <use xlink:href="#m954a2ff612" x="97.011746" y="102.072685" style="fill: #2e7c6b; stroke: #ffffff; stroke-width: 0.8"/>
    </g>
   </g>
   <g id="text_13">
    <text style="font-size: 7.2px; font-family: 'Nimbus Sans'; text-anchor: middle; fill: #5d6874" x="76.726872" y="114.201601" transform="rotate(-0 76.726872 114.201601)">2.0</text>
   </g>
   <g id="text_14">
    <text style="font-size: 7.2px; font-family: 'Nimbus Sans'; text-anchor: middle; fill: #17212b" x="97.011746" y="93.623644" transform="rotate(-0 97.011746 93.623644)">3.2</text>
   </g>
   <g id="text_15">
    <text style="font-size: 8px; font-family: 'Nimbus Sans'; text-anchor: start; fill: #17212b" x="104.3143" y="104.11706" transform="rotate(-0 104.3143 104.11706)">+1.2 pp</text>
   </g>
   <g id="text_16">
    <text style="font-weight: 700; font-size: 13px; font-family: 'Nimbus Sans'; text-anchor: start" x="11.882894" y="26.019985" transform="rotate(-0 11.882894 26.019985)">a</text>
   </g>
   <g id="text_17">
    <text style="font-size: 10.5px; font-family: 'Nimbus Sans'; text-anchor: start" x="42.91875" y="21.62208" transform="rotate(-0 42.91875 21.62208)">Conversation-level constructive ratio</text>
   </g>
  </g>
  <g id="axes_2">
   <g id="patch_4">
    <path d="M 309.635856 126.937716
L 509.58675 126.937716
L 509.58675 32.62208
L 309.635856 32.62208
z
" style="fill: #ffffff"/>
   </g>
   <g id="matplotlib.axis_3">
    <g id="xtick_7">
     <g id="line2d_17"/>
     <g id="text_18">
      <text style="font-size: 8px; font-family: 'Nimbus Sans'; text-anchor: middle" x="362.003947" y="136.865216" transform="rotate(-0 362.003947 136.865216)">WC coding</text>
     </g>
    </g>
    <g id="xtick_8">
     <g id="line2d_18"/>
     <g id="text_19">
      <text style="font-size: 8px; font-family: 'Nimbus Sans'; text-anchor: middle" x="457.218659" y="136.865216" transform="rotate(-0 457.218659 136.865216)">WC writing</text>
     </g>
    </g>
   </g>
   <g id="matplotlib.axis_4">
    <g id="ytick_3">
     <g id="line2d_19">
      <path d="M 309.635856 122.530444
L 509.58675 122.530444
" clip-path="url(#p8045d7bbcc)" style="fill: none; stroke: #e5e9ed; stroke-width: 0.8; stroke-linecap: square"/>
     </g>
     <g id="line2d_20">
      <defs>
       <path id="m426b425048" d="M 0 0
L -3.5 0
" style="stroke: #000000; stroke-width: 0.8"/>
      </defs>
      <g>
       <use xlink:href="#m426b425048" x="309.635856" y="122.530444" style="stroke: #000000; stroke-width: 0.8"/>
      </g>
     </g>
     <g id="text_20">
      <text style="font-size: 7.5px; font-family: 'Nimbus Sans'; text-anchor: end" x="302.635856" y="125.264428" transform="rotate(-0 302.635856 125.264428)">1.0</text>
     </g>
    </g>
    <g id="ytick_4">
     <g id="line2d_21">
      <path d="M 309.635856 104.901353
L 509.58675 104.901353
" clip-path="url(#p8045d7bbcc)" style="fill: none; stroke: #e5e9ed; stroke-width: 0.8; stroke-linecap: square"/>
     </g>
     <g id="line2d_22">
      <g>
       <use xlink:href="#m426b425048" x="309.635856" y="104.901353" style="stroke: #000000; stroke-width: 0.8"/>
      </g>
     </g>
     <g id="text_21">
      <text style="font-size: 7.5px; font-family: 'Nimbus Sans'; text-anchor: end" x="302.635856" y="107.635337" transform="rotate(-0 302.635856 107.635337)">1.2</text>
     </g>
    </g>
    <g id="ytick_5">
     <g id="line2d_23">
      <path d="M 309.635856 87.272262
L 509.58675 87.272262
" clip-path="url(#p8045d7bbcc)" style="fill: none; stroke: #e5e9ed; stroke-width: 0.8; stroke-linecap: square"/>
     </g>
     <g id="line2d_24">
      <g>
       <use xlink:href="#m426b425048" x="309.635856" y="87.272262" style="stroke: #000000; stroke-width: 0.8"/>
      </g>
     </g>
     <g id="text_22">
      <text style="font-size: 7.5px; font-family: 'Nimbus Sans'; text-anchor: end" x="302.635856" y="90.006246" transform="rotate(-0 302.635856 90.006246)">1.4</text>
     </g>
    </g>
    <g id="ytick_6">
     <g id="line2d_25">
      <path d="M 309.635856 69.643171
L 509.58675 69.643171
" clip-path="url(#p8045d7bbcc)" style="fill: none; stroke: #e5e9ed; stroke-width: 0.8; stroke-linecap: square"/>
     </g>
     <g id="line2d_26">
      <g>
       <use xlink:href="#m426b425048" x="309.635856" y="69.643171" style="stroke: #000000; stroke-width: 0.8"/>
      </g>
     </g>
     <g id="text_23">
      <text style="font-size: 7.5px; font-family: 'Nimbus Sans'; text-anchor: end" x="302.635856" y="72.377155" transform="rotate(-0 302.635856 72.377155)">1.6</text>
     </g>
    </g>
    <g id="ytick_7">
     <g id="line2d_27">
      <path d="M 309.635856 52.01408
L 509.58675 52.01408
" clip-path="url(#p8045d7bbcc)" style="fill: none; stroke: #e5e9ed; stroke-width: 0.8; stroke-linecap: square"/>
     </g>
     <g id="line2d_28">
      <g>
       <use xlink:href="#m426b425048" x="309.635856" y="52.01408" style="stroke: #000000; stroke-width: 0.8"/>
      </g>
     </g>
     <g id="text_24">
      <text style="font-size: 7.5px; font-family: 'Nimbus Sans'; text-anchor: end" x="302.635856" y="54.748064" transform="rotate(-0 302.635856 54.748064)">1.8</text>
     </g>
    </g>
    <g id="ytick_8">
     <g id="line2d_29">
      <path d="M 309.635856 34.384989
L 509.58675 34.384989
" clip-path="url(#p8045d7bbcc)" style="fill: none; stroke: #e5e9ed; stroke-width: 0.8; stroke-linecap: square"/>
     </g>
     <g id="line2d_30">
      <g>
       <use xlink:href="#m426b425048" x="309.635856" y="34.384989" style="stroke: #000000; stroke-width: 0.8"/>
      </g>
     </g>
     <g id="text_25">
      <text style="font-size: 7.5px; font-family: 'Nimbus Sans'; text-anchor: end" x="302.635856" y="37.118973" transform="rotate(-0 302.635856 37.118973)">2.0</text>
     </g>
    </g>
    <g id="text_26">
     <text style="font-size: 9px; font-family: 'Nimbus Sans'; text-anchor: middle" x="286.250309" y="79.779898" transform="rotate(-90 286.250309 79.779898)">Association estimate</text>
    </g>
   </g>
   <g id="line2d_31">
    <path d="M 309.635856 122.530444
L 509.58675 122.530444
" clip-path="url(#p8045d7bbcc)" style="fill: none; stroke: #17212b; stroke-width: 0.9; stroke-linecap: square"/>
   </g>
   <g id="patch_5">
    <path d="M 333.439534 122.530444
L 362.003947 122.530444
L 362.003947 47.430516
L 333.439534 47.430516
z
" clip-path="url(#p8045d7bbcc)" style="fill: #2e7c6b; stroke: #ffffff; stroke-width: 0.7; stroke-linejoin: miter"/>
   </g>
   <g id="patch_6">
    <path d="M 428.654245 122.530444
L 457.218659 122.530444
L 457.218659 72.37568
L 428.654245 72.37568
z
" clip-path="url(#p8045d7bbcc)" style="fill: #2e7c6b; stroke: #ffffff; stroke-width: 0.7; stroke-linejoin: miter"/>
   </g>
   <g id="patch_7">
    <path d="M 362.003947 122.530444
L 390.568361 122.530444
L 390.568361 55.451753
L 362.003947 55.451753
z
" clip-path="url(#p8045d7bbcc)" style="fill: #5a6470; stroke: #ffffff; stroke-width: 0.7; stroke-linejoin: miter"/>
   </g>
   <g id="patch_8">
    <path d="M 457.218659 122.530444
L 485.783072 122.530444
L 485.783072 84.01088
L 457.218659 84.01088
z
" clip-path="url(#p8045d7bbcc)" style="fill: #5a6470; stroke: #ffffff; stroke-width: 0.7; stroke-linejoin: miter"/>
   </g>
   <g id="patch_9">
    <path d="M 309.635856 126.937716
L 309.635856 32.62208
" style="fill: none; stroke: #000000; stroke-width: 0.75; stroke-linejoin: miter; stroke-linecap: square"/>
   </g>
   <g id="patch_10">
    <path d="M 309.635856 126.937716
L 509.58675 126.937716
" style="fill: none; stroke: #000000; stroke-width: 0.75; stroke-linejoin: miter; stroke-linecap: square"/>
   </g>
   <g id="text_27">
    <text style="font-size: 7.4px; font-family: 'Nimbus Sans'; text-anchor: middle; fill: #17212b" x="347.72174" y="42.732457" transform="rotate(-0 347.72174 42.732457)">1.85</text>
   </g>
   <g id="text_28">
    <text style="font-size: 7.4px; font-family: 'Nimbus Sans'; text-anchor: middle; fill: #17212b" x="376.286154" y="50.753693" transform="rotate(-0 376.286154 50.753693)">1.76</text>
   </g>
   <g id="text_29">
    <text style="font-size: 7.4px; font-family: 'Nimbus Sans'; text-anchor: middle; fill: #17212b" x="442.936452" y="67.67762" transform="rotate(-0 442.936452 67.67762)">1.57</text>
   </g>
   <g id="text_30">
    <text style="font-size: 7.4px; font-family: 'Nimbus Sans'; text-anchor: middle; fill: #17212b" x="471.500865" y="79.31282" transform="rotate(-0 471.500865 79.31282)">1.44</text>
   </g>
   <g id="text_31">
    <text style="font-weight: 700; font-size: 13px; font-family: 'Nimbus Sans'; text-anchor: start" x="283.64224" y="26.019985" transform="rotate(-0 283.64224 26.019985)">b</text>
   </g>
   <g id="text_32">
    <text style="font-size: 10.5px; font-family: 'Nimbus Sans'; text-anchor: start" x="309.635856" y="21.62208" transform="rotate(-0 309.635856 21.62208)">Adjusted association models</text>
   </g>
   <g id="legend_1">
    <g id="line2d_32">
     <path d="M 441.7555 42.85458
L 449.7555 42.85458
L 457.7555 42.85458
" style="fill: none; stroke: #000000; stroke-opacity: 0; stroke-width: 1.5; stroke-linecap: square"/>
     <defs>
      <path id="m627181b064" d="M 0 3.2
C 0.84865 3.2 1.662656 2.862828 2.262742 2.262742
C 2.862828 1.662656 3.2 0.84865 3.2 0
C 3.2 -0.84865 2.862828 -1.662656 2.262742 -2.262742
C 1.662656 -2.862828 0.84865 -3.2 0 -3.2
C -0.84865 -3.2 -1.662656 -2.862828 -2.262742 -2.262742
C -2.862828 -1.662656 -3.2 -0.84865 -3.2 0
C -3.2 0.84865 -2.862828 1.662656 -2.262742 2.262742
C -1.662656 2.862828 -0.84865 3.2 0 3.2
z
" style="stroke: #000000"/>
     </defs>
     <g>
      <use xlink:href="#m627181b064" x="449.7555" y="42.85458" style="fill: #2e7c6b; stroke: #000000"/>
     </g>
    </g>
    <g id="text_33">
     <text style="font-size: 8px; font-family: 'Nimbus Sans'; text-anchor: start" x="460.1555" y="45.65458" transform="rotate(-0 460.1555 45.65458)">Poisson RR</text>
    </g>
    <g id="line2d_33">
     <path d="M 441.7555 54.52583
L 449.7555 54.52583
L 457.7555 54.52583
" style="fill: none; stroke: #000000; stroke-opacity: 0; stroke-width: 1.5; stroke-linecap: square"/>
     <defs>
      <path id="m79bc4dfaef" d="M 0 3.2
C 0.84865 3.2 1.662656 2.862828 2.262742 2.262742
C 2.862828 1.662656 3.2 0.84865 3.2 0
C 3.2 -0.84865 2.862828 -1.662656 2.262742 -2.262742
C 1.662656 -2.862828 0.84865 -3.2 0 -3.2
C -0.84865 -3.2 -1.662656 -2.862828 -2.262742 -2.262742
C -2.862828 -1.662656 -3.2 -0.84865 -3.2 0
C -3.2 0.84865 -2.862828 1.662656 -2.262742 2.262742
C -1.662656 2.862828 -0.84865 3.2 0 3.2
z
" style="stroke: #000000"/>
     </defs>
     <g>
      <use xlink:href="#m79bc4dfaef" x="449.7555" y="54.52583" style="fill: #5a6470; stroke: #000000"/>
     </g>
    </g>
    <g id="text_34">
     <text style="font-size: 8px; font-family: 'Nimbus Sans'; text-anchor: start" x="460.1555" y="57.32583" transform="rotate(-0 460.1555 57.32583)">Logit OR</text>
    </g>
   </g>
  </g>
  <g id="axes_3">
   <g id="patch_11">
    <path d="M 42.91875 250.4912
L 225.48261 250.4912
L 225.48261 179.754473
L 42.91875 179.754473
z
" style="fill: #ffffff"/>
   </g>
   <g id="matplotlib.axis_5">
    <g id="xtick_9">
     <g id="line2d_34">
      <path d="M 42.91875 250.4912
L 42.91875 179.754473
" clip-path="url(#p74459f0f34)" style="fill: none; stroke: #e5e9ed; stroke-width: 0.8; stroke-linecap: square"/>
     </g>
     <g id="line2d_35">
      <g>
       <use xlink:href="#md16500b199" x="42.91875" y="250.4912" style="stroke: #000000; stroke-width: 0.8"/>
      </g>
     </g>
     <g id="text_35">
      <text style="font-size: 7.4px; font-family: 'Nimbus Sans'; text-anchor: middle" x="42.91875" y="262.886262" transform="rotate(-0 42.91875 262.886262)">0</text>
     </g>
    </g>
    <g id="xtick_10">
     <g id="line2d_36">
      <path d="M 79.431522 250.4912
L 79.431522 179.754473
" clip-path="url(#p74459f0f34)" style="fill: none; stroke: #e5e9ed; stroke-width: 0.8; stroke-linecap: square"/>
     </g>
     <g id="line2d_37">
      <g>
       <use xlink:href="#md16500b199" x="79.431522" y="250.4912" style="stroke: #000000; stroke-width: 0.8"/>
      </g>
     </g>
     <g id="text_36">
      <text style="font-size: 7.4px; font-family: 'Nimbus Sans'; text-anchor: middle" x="79.431522" y="262.886262" transform="rotate(-0 79.431522 262.886262)">20</text>
     </g>
    </g>
    <g id="xtick_11">
     <g id="line2d_38">
      <path d="M 115.944294 250.4912
L 115.944294 179.754473
" clip-path="url(#p74459f0f34)" style="fill: none; stroke: #e5e9ed; stroke-width: 0.8; stroke-linecap: square"/>
     </g>
     <g id="line2d_39">
      <g>
       <use xlink:href="#md16500b199" x="115.944294" y="250.4912" style="stroke: #000000; stroke-width: 0.8"/>
      </g>
     </g>
     <g id="text_37">
      <text style="font-size: 7.4px; font-family: 'Nimbus Sans'; text-anchor: middle" x="115.944294" y="262.886262" transform="rotate(-0 115.944294 262.886262)">40</text>
     </g>
    </g>
    <g id="xtick_12">
     <g id="line2d_40">
      <path d="M 152.457066 250.4912
L 152.457066 179.754473
" clip-path="url(#p74459f0f34)" style="fill: none; stroke: #e5e9ed; stroke-width: 0.8; stroke-linecap: square"/>
     </g>
     <g id="line2d_41">
      <g>
       <use xlink:href="#md16500b199" x="152.457066" y="250.4912" style="stroke: #000000; stroke-width: 0.8"/>
      </g>
     </g>
     <g id="text_38">
      <text style="font-size: 7.4px; font-family: 'Nimbus Sans'; text-anchor: middle" x="152.457066" y="262.886262" transform="rotate(-0 152.457066 262.886262)">60</text>
     </g>
    </g>
    <g id="xtick_13">
     <g id="line2d_42">
      <path d="M 188.969838 250.4912
L 188.969838 179.754473
" clip-path="url(#p74459f0f34)" style="fill: none; stroke: #e5e9ed; stroke-width: 0.8; stroke-linecap: square"/>
     </g>
     <g id="line2d_43">
      <g>
       <use xlink:href="#md16500b199" x="188.969838" y="250.4912" style="stroke: #000000; stroke-width: 0.8"/>
      </g>
     </g>
     <g id="text_39">
      <text style="font-size: 7.4px; font-family: 'Nimbus Sans'; text-anchor: middle" x="188.969838" y="262.886262" transform="rotate(-0 188.969838 262.886262)">80</text>
     </g>
    </g>
    <g id="xtick_14">
     <g id="line2d_44">
      <path d="M 225.48261 250.4912
L 225.48261 179.754473
" clip-path="url(#p74459f0f34)" style="fill: none; stroke: #e5e9ed; stroke-width: 0.8; stroke-linecap: square"/>
     </g>
     <g id="line2d_45">
      <g>
       <use xlink:href="#md16500b199" x="225.48261" y="250.4912" style="stroke: #000000; stroke-width: 0.8"/>
      </g>
     </g>
     <g id="text_40">
      <text style="font-size: 7.4px; font-family: 'Nimbus Sans'; text-anchor: middle" x="225.48261" y="262.886262" transform="rotate(-0 225.48261 262.886262)">100</text>
     </g>
    </g>
    <g id="text_41">
     <text style="font-size: 9px; font-family: 'Nimbus Sans'; text-anchor: middle" x="134.20068" y="275.060794" transform="rotate(-0 134.20068 275.060794)">Persistence after failure (%)</text>
    </g>
   </g>
   <g id="matplotlib.axis_6">
    <g id="ytick_9">
     <g id="line2d_46"/>
     <g id="text_42">
      <text style="font-size: 7.6px; font-family: 'Nimbus Sans'; text-anchor: end" x="40.91875" y="240.536272" transform="rotate(-0 40.91875 240.536272)">reference</text>
     </g>
    </g>
    <g id="ytick_10">
     <g id="line2d_47"/>
     <g id="text_43">
      <text style="font-size: 7.6px; font-family: 'Nimbus Sans'" transform="translate(6.280563 191.651557)">scaffolded</text>
      <text style="font-size: 7.6px; font-family: 'Nimbus Sans'" transform="translate(15.575125 199.957169)">support</text>
     </g>
    </g>
   </g>
   <g id="patch_12">
    <path d="M 42.91875 247.275894
L 123.246848 247.275894
L 123.246848 228.255775
L 42.91875 228.255775
z
" clip-path="url(#p74459f0f34)" style="fill: #b8c4cf; stroke: #ffffff; stroke-width: 0.8; stroke-linejoin: miter"/>
   </g>
   <g id="patch_13">
    <path d="M 42.91875 201.989897
L 206.313405 201.989897
L 206.313405 182.969779
L 42.91875 182.969779
z
" clip-path="url(#p74459f0f34)" style="fill: #2e7c6b; stroke: #ffffff; stroke-width: 0.8; stroke-linejoin: miter"/>
   </g>
   <g id="patch_14">
    <path d="M 42.91875 250.4912
L 225.48261 250.4912
" style="fill: none; stroke: #000000; stroke-width: 0.75; stroke-linejoin: miter; stroke-linecap: square"/>
   </g>
   <g id="text_44">
    <text style="font-size: 8px; font-family: 'Nimbus Sans'; text-anchor: start; fill: #17212b" x="126.898126" y="239.81021" transform="rotate(-0 126.898126 239.81021)">44.0%</text>
   </g>
   <g id="text_45">
    <text style="font-size: 8px; font-family: 'Nimbus Sans'; text-anchor: start; fill: #17212b" x="209.964682" y="194.524213" transform="rotate(-0 209.964682 194.524213)">89.5%</text>
   </g>
   <g id="patch_15">
    <path d="M 168.74628 208.546627
Q 186.610383 200.906469 204.474487 193.26631
" style="fill: none; stroke: #17212b; stroke-width: 0.8; stroke-linecap: round"/>
   </g>
   <g id="text_46">
    <text style="font-weight: 700; font-size: 8px; font-family: 'Nimbus Sans'; text-anchor: middle; fill: #17212b" x="153.369885" y="217.167211" transform="rotate(-0 153.369885 217.167211)">+45.5 pp</text>
   </g>
   <g id="text_47">
    <text style="font-weight: 700; font-size: 13px; font-family: 'Nimbus Sans'; text-anchor: start" x="11.882894" y="169.143964" transform="rotate(-0 11.882894 169.143964)">c</text>
   </g>
   <g id="text_48">
    <text style="font-size: 10.5px; font-family: 'Nimbus Sans'; text-anchor: start" x="42.91875" y="168.754473" transform="rotate(-0 42.91875 168.754473)">Coding failure persistence</text>
   </g>
  </g>
  <g id="axes_4">
   <g id="patch_16">
    <path d="M 309.635856 250.4912
L 509.58675 250.4912
L 509.58675 179.754473
L 309.635856 179.754473
z
" style="fill: #ffffff"/>
   </g>
   <g id="patch_17">
    <path d="M 309.635856 182.969779
L 435.238812 182.969779
L 435.238812 205.518676
L 309.635856 205.518676
z
" clip-path="url(#pa990de5302)" style="fill: #2e7c6b; stroke: #ffffff; stroke-width: 0.8; stroke-linejoin: miter"/>
   </g>
   <g id="patch_18">
    <path d="M 309.635856 224.726997
L 485.930588 224.726997
L 485.930588 247.275894
L 309.635856 247.275894
z
" clip-path="url(#pa990de5302)" style="fill: #2e7c6b; stroke: #ffffff; stroke-width: 0.8; stroke-linejoin: miter"/>
   </g>
   <g id="matplotlib.axis_7">
    <g id="xtick_15">
     <g id="line2d_48">
      <path d="M 309.635856 250.4912
L 309.635856 179.754473
" clip-path="url(#pa990de5302)" style="fill: none; stroke: #e5e9ed; stroke-width: 0.8; stroke-linecap: square"/>
     </g>
     <g id="line2d_49">
      <g>
       <use xlink:href="#md16500b199" x="309.635856" y="250.4912" style="stroke: #000000; stroke-width: 0.8"/>
      </g>
     </g>
     <g id="text_49">
      <text style="font-size: 8px; font-family: 'Nimbus Sans'; text-anchor: middle" x="309.635856" y="263.3237" transform="rotate(-0 309.635856 263.3237)">0.0</text>
     </g>
    </g>
    <g id="xtick_16">
     <g id="line2d_50">
      <path d="M 337.797954 250.4912
L 337.797954 179.754473
" clip-path="url(#pa990de5302)" style="fill: none; stroke: #e5e9ed; stroke-width: 0.8; stroke-linecap: square"/>
     </g>
     <g id="line2d_51">
      <g>
       <use xlink:href="#md16500b199" x="337.797954" y="250.4912" style="stroke: #000000; stroke-width: 0.8"/>
      </g>
     </g>
     <g id="text_50">
      <text style="font-size: 8px; font-family: 'Nimbus Sans'; text-anchor: middle" x="337.797954" y="263.3237" transform="rotate(-0 337.797954 263.3237)">0.5</text>
     </g>
    </g>
    <g id="xtick_17">
     <g id="line2d_52">
      <path d="M 365.960051 250.4912
L 365.960051 179.754473
" clip-path="url(#pa990de5302)" style="fill: none; stroke: #e5e9ed; stroke-width: 0.8; stroke-linecap: square"/>
     </g>
     <g id="line2d_53">
      <g>
       <use xlink:href="#md16500b199" x="365.960051" y="250.4912" style="stroke: #000000; stroke-width: 0.8"/>
      </g>
     </g>
     <g id="text_51">
      <text style="font-size: 8px; font-family: 'Nimbus Sans'; text-anchor: middle" x="365.960051" y="263.3237" transform="rotate(-0 365.960051 263.3237)">1.0</text>
     </g>
    </g>
    <g id="xtick_18">
     <g id="line2d_54">
      <path d="M 394.122149 250.4912
L 394.122149 179.754473
" clip-path="url(#pa990de5302)" style="fill: none; stroke: #e5e9ed; stroke-width: 0.8; stroke-linecap: square"/>
     </g>
     <g id="line2d_55">
      <g>
       <use xlink:href="#md16500b199" x="394.122149" y="250.4912" style="stroke: #000000; stroke-width: 0.8"/>
      </g>
     </g>
     <g id="text_52">
      <text style="font-size: 8px; font-family: 'Nimbus Sans'; text-anchor: middle" x="394.122149" y="263.3237" transform="rotate(-0 394.122149 263.3237)">1.5</text>
     </g>
    </g>
    <g id="xtick_19">
     <g id="line2d_56">
      <path d="M 422.284247 250.4912
L 422.284247 179.754473
" clip-path="url(#pa990de5302)" style="fill: none; stroke: #e5e9ed; stroke-width: 0.8; stroke-linecap: square"/>
     </g>
     <g id="line2d_57">
      <g>
       <use xlink:href="#md16500b199" x="422.284247" y="250.4912" style="stroke: #000000; stroke-width: 0.8"/>
      </g>
     </g>
     <g id="text_53">
      <text style="font-size: 8px; font-family: 'Nimbus Sans'; text-anchor: middle" x="422.284247" y="263.3237" transform="rotate(-0 422.284247 263.3237)">2.0</text>
     </g>
    </g>
    <g id="xtick_20">
     <g id="line2d_58">
      <path d="M 450.446345 250.4912
L 450.446345 179.754473
" clip-path="url(#pa990de5302)" style="fill: none; stroke: #e5e9ed; stroke-width: 0.8; stroke-linecap: square"/>
     </g>
     <g id="line2d_59">
      <g>
       <use xlink:href="#md16500b199" x="450.446345" y="250.4912" style="stroke: #000000; stroke-width: 0.8"/>
      </g>
     </g>
     <g id="text_54">
      <text style="font-size: 8px; font-family: 'Nimbus Sans'; text-anchor: middle" x="450.446345" y="263.3237" transform="rotate(-0 450.446345 263.3237)">2.5</text>
     </g>
    </g>
    <g id="xtick_21">
     <g id="line2d_60">
      <path d="M 478.608442 250.4912
L 478.608442 179.754473
" clip-path="url(#pa990de5302)" style="fill: none; stroke: #e5e9ed; stroke-width: 0.8; stroke-linecap: square"/>
     </g>
     <g id="line2d_61">
      <g>
       <use xlink:href="#md16500b199" x="478.608442" y="250.4912" style="stroke: #000000; stroke-width: 0.8"/>
      </g>
     </g>
     <g id="text_55">
      <text style="font-size: 8px; font-family: 'Nimbus Sans'; text-anchor: middle" x="478.608442" y="263.3237" transform="rotate(-0 478.608442 263.3237)">3.0</text>
     </g>
    </g>
    <g id="xtick_22">
     <g id="line2d_62">
      <path d="M 506.77054 250.4912
L 506.77054 179.754473
" clip-path="url(#pa990de5302)" style="fill: none; stroke: #e5e9ed; stroke-width: 0.8; stroke-linecap: square"/>
     </g>
     <g id="line2d_63">
      <g>
       <use xlink:href="#md16500b199" x="506.77054" y="250.4912" style="stroke: #000000; stroke-width: 0.8"/>
      </g>
     </g>
     <g id="text_56">
      <text style="font-size: 8px; font-family: 'Nimbus Sans'; text-anchor: middle" x="506.77054" y="263.3237" transform="rotate(-0 506.77054 263.3237)">3.5</text>
     </g>
    </g>
    <g id="text_57">
     <text style="font-size: 9px; font-family: 'Nimbus Sans'; text-anchor: middle" x="409.611303" y="275.68245" transform="rotate(-0 409.611303 275.68245)">Scaffolded - reference (turns)</text>
    </g>
   </g>
   <g id="matplotlib.axis_8">
    <g id="ytick_11">
     <g id="line2d_64"/>
     <g id="text_58">
      <text style="font-size: 8px; font-family: 'Nimbus Sans'; text-anchor: end" x="307.635856" y="197.207977" transform="rotate(-0 307.635856 197.207977)">WC coding</text>
     </g>
    </g>
    <g id="ytick_12">
     <g id="line2d_65"/>
     <g id="text_59">
      <text style="font-size: 8px; font-family: 'Nimbus Sans'; text-anchor: end" x="307.635856" y="238.965195" transform="rotate(-0 307.635856 238.965195)">WC writing</text>
     </g>
    </g>
   </g>
   <g id="line2d_66">
    <path d="M 309.635856 250.4912
L 309.635856 179.754473
" clip-path="url(#pa990de5302)" style="fill: none; stroke: #17212b; stroke-width: 0.9; stroke-linecap: square"/>
   </g>
   <g id="patch_19">
    <path d="M 309.635856 250.4912
L 509.58675 250.4912
" style="fill: none; stroke: #000000; stroke-width: 0.75; stroke-linejoin: miter; stroke-linecap: square"/>
   </g>
   <g id="text_60">
    <text style="font-size: 8.2px; font-family: 'Nimbus Sans'; text-anchor: start; fill: #17212b" x="439.744748" y="196.339712" transform="rotate(-0 439.744748 196.339712)">+2.23</text>
   </g>
   <g id="text_61">
    <text style="font-size: 8.2px; font-family: 'Nimbus Sans'; text-anchor: start; fill: #17212b" x="490.436524" y="238.09693" transform="rotate(-0 490.436524 238.09693)">+3.13</text>
   </g>
   <g id="text_62">
    <text style="font-weight: 700; font-size: 13px; font-family: 'Nimbus Sans'; text-anchor: start" x="283.64224" y="169.143964" transform="rotate(-0 283.64224 169.143964)">d</text>
   </g>
   <g id="text_63">
    <text style="font-size: 10.5px; font-family: 'Nimbus Sans'; text-anchor: start" x="309.635856" y="171.754473" transform="rotate(-0 309.635856 171.754473)">Post-answer depth</text>
   </g>
  </g>
  <g id="text_64">
   <text style="font-size: 7.2px; font-family: 'Nimbus Sans'; text-anchor: end; fill: #5d6874" x="509.58675" y="292.0928" transform="rotate(-0 509.58675 292.0928)">Panel c reports persistence after failure in coding-oriented WildChat conversations.</text>
  </g>
  <g id="legend_2">
   <g id="line2d_67">
    <path d="M 50.11875 8.05625
L 58.11875 8.05625
L 66.11875 8.05625
" style="fill: none; stroke: #000000; stroke-opacity: 0; stroke-width: 1.5; stroke-linecap: square"/>
    <defs>
     <path id="m350c865bea" d="M 0 3.2
C 0.84865 3.2 1.662656 2.862828 2.262742 2.262742
C 2.862828 1.662656 3.2 0.84865 3.2 0
C 3.2 -0.84865 2.862828 -1.662656 2.262742 -2.262742
C 1.662656 -2.862828 0.84865 -3.2 0 -3.2
C -0.84865 -3.2 -1.662656 -2.862828 -2.262742 -2.262742
C -2.862828 -1.662656 -3.2 -0.84865 -3.2 0
C -3.2 0.84865 -2.862828 1.662656 -2.262742 2.262742
C -1.662656 2.862828 -0.84865 3.2 0 3.2
z
" style="stroke: #17212b"/>
    </defs>
    <g>
     <use xlink:href="#m350c865bea" x="58.11875" y="8.05625" style="fill: #b8c4cf; stroke: #17212b"/>
    </g>
   </g>
   <g id="text_65">
    <text style="font-size: 8px; font-family: 'Nimbus Sans'; text-anchor: start" x="68.51875" y="10.85625" transform="rotate(-0 68.51875 10.85625)">non-scaffolded reference</text>
   </g>
   <g id="line2d_68">
    <path d="M 172.99875 8.05625
L 180.99875 8.05625
L 188.99875 8.05625
" style="fill: none; stroke: #000000; stroke-opacity: 0; stroke-width: 1.5; stroke-linecap: square"/>
    <defs>
     <path id="m14f79d7e55" d="M 0 3.2
C 0.84865 3.2 1.662656 2.862828 2.262742 2.262742
C 2.862828 1.662656 3.2 0.84865 3.2 0
C 3.2 -0.84865 2.862828 -1.662656 2.262742 -2.262742
C 1.662656 -2.862828 0.84865 -3.2 0 -3.2
C -0.84865 -3.2 -1.662656 -2.862828 -2.262742 -2.262742
C -2.862828 -1.662656 -3.2 -0.84865 -3.2 0
C -3.2 0.84865 -2.862828 1.662656 -2.262742 2.262742
C -1.662656 2.862828 -0.84865 3.2 0 3.2
z
" style="stroke: #17212b"/>
    </defs>
    <g>
     <use xlink:href="#m14f79d7e55" x="180.99875" y="8.05625" style="fill: #2e7c6b; stroke: #17212b"/>
    </g>
   </g>
   <g id="text_66">
    <text style="font-size: 8px; font-family: 'Nimbus Sans'; text-anchor: start" x="191.39875" y="10.85625" transform="rotate(-0 191.39875 10.85625)">scaffolded support</text>
   </g>
  </g>
 </g>
 <defs>
  <clipPath id="p9787d9c8f0">
   <rect x="42.91875" y="32.62208" width="182.56386" height="94.315636"/>
  </clipPath>
  <clipPath id="p8045d7bbcc">
   <rect x="309.635856" y="32.62208" width="199.950894" height="94.315636"/>
  </clipPath>
  <clipPath id="p74459f0f34">
   <rect x="42.91875" y="179.754473" width="182.56386" height="70.736727"/>
  </clipPath>
  <clipPath id="pa990de5302">
   <rect x="309.635856" y="179.754473" width="199.950894" height="70.736727"/>
  </clipPath>
 </defs>
</svg>
