<?xml version="1.0" encoding="utf-8" standalone="no"?>
<!DOCTYPE svg PUBLIC "-//W3C//DTD SVG 1.1//EN"
  "http://www.w3.org/Graphics/SVG/1.1/DTD/svg11.dtd">
<svg xmlns:xlink="http://www.w3.org/1999/xlink" width="524.63214pt" height="300.306897pt" viewBox="0 0 524.63214 300.306897" xmlns="http://www.w3.org/2000/svg" version="1.1">
 <metadata>
  <rdf:RDF xmlns:dc="http://purl.org/dc/elements/1.1/" xmlns:cc="http://creativecommons.org/ns#" xmlns:rdf="http://www.w3.org/1999/02/22-rdf-syntax-ns#">
   <cc:Work>
    <dc:type rdf:resource="http://purl.org/dc/dcmitype/StillImage"/>
    <dc:date>2026-05-26T01:35:58.435711</dc:date>
    <dc:format>image/svg+xml</dc:format>
    <dc:creator>
     <cc:Agent>
      <dc:title>Matplotlib v3.10.0, https://matplotlib.org/</dc:title>
     </cc:Agent>
    </dc:creator>
   </cc:Work>
  </rdf:RDF>
 </metadata>
 <defs>
  <style type="text/css">*{stroke-linejoin: round; stroke-linecap: butt}</style>
 </defs>
 <g id="figure_1">
  <g id="patch_1">
   <path d="M 0 300.306897
L 524.63214 300.306897
L 524.63214 0
L 0 0
z
" style="fill: #ffffff"/>
  </g>
  <g id="axes_1">
   <g id="patch_2">
    <path d="M 50.80014 127.572395
L 233.409357 127.572395
L 233.409357 34.486328
L 50.80014 34.486328
z
" style="fill: #ffffff"/>
   </g>
   <g id="matplotlib.axis_1">
    <g id="xtick_1">
     <g id="line2d_1">
      <path d="M 50.80014 127.572395
L 50.80014 34.486328
" clip-path="url(#pb4f4a1c910)" style="fill: none; stroke: #e5e9ed; stroke-width: 0.8; stroke-linecap: square"/>
     </g>
     <g id="line2d_2">
      <defs>
       <path id="mcf046e140f" d="M 0 0
L 0 3.5
" style="stroke: #000000; stroke-width: 0.8"/>
      </defs>
      <g>
       <use xlink:href="#mcf046e140f" x="50.80014" y="127.572395" style="stroke: #000000; stroke-width: 0.8"/>
      </g>
     </g>
     <g id="text_1">
      <text style="font-size: 8px; font-family: 'Nimbus Sans'; text-anchor: middle" x="50.80014" y="140.404895" transform="rotate(-0 50.80014 140.404895)">0</text>
     </g>
    </g>
    <g id="xtick_2">
     <g id="line2d_3">
      <path d="M 83.702702 127.572395
L 83.702702 34.486328
" clip-path="url(#pb4f4a1c910)" style="fill: none; stroke: #e5e9ed; stroke-width: 0.8; stroke-linecap: square"/>
     </g>
     <g id="line2d_4">
      <g>
       <use xlink:href="#mcf046e140f" x="83.702702" y="127.572395" style="stroke: #000000; stroke-width: 0.8"/>
      </g>
     </g>
     <g id="text_2">
      <text style="font-size: 8px; font-family: 'Nimbus Sans'; text-anchor: middle" x="83.702702" y="140.404895" transform="rotate(-0 83.702702 140.404895)">20</text>
     </g>
    </g>
    <g id="xtick_3">
     <g id="line2d_5">
      <path d="M 116.605263 127.572395
L 116.605263 34.486328
" clip-path="url(#pb4f4a1c910)" style="fill: none; stroke: #e5e9ed; stroke-width: 0.8; stroke-linecap: square"/>
     </g>
     <g id="line2d_6">
      <g>
       <use xlink:href="#mcf046e140f" x="116.605263" y="127.572395" style="stroke: #000000; stroke-width: 0.8"/>
      </g>
     </g>
     <g id="text_3">
      <text style="font-size: 8px; font-family: 'Nimbus Sans'; text-anchor: middle" x="116.605263" y="140.404895" transform="rotate(-0 116.605263 140.404895)">40</text>
     </g>
    </g>
    <g id="xtick_4">
     <g id="line2d_7">
      <path d="M 149.507825 127.572395
L 149.507825 34.486328
" clip-path="url(#pb4f4a1c910)" style="fill: none; stroke: #e5e9ed; stroke-width: 0.8; stroke-linecap: square"/>
     </g>
     <g id="line2d_8">
      <g>
       <use xlink:href="#mcf046e140f" x="149.507825" y="127.572395" style="stroke: #000000; stroke-width: 0.8"/>
      </g>
     </g>
     <g id="text_4">
      <text style="font-size: 8px; font-family: 'Nimbus Sans'; text-anchor: middle" x="149.507825" y="140.404895" transform="rotate(-0 149.507825 140.404895)">60</text>
     </g>
    </g>
    <g id="xtick_5">
     <g id="line2d_9">
      <path d="M 182.410387 127.572395
L 182.410387 34.486328
" clip-path="url(#pb4f4a1c910)" style="fill: none; stroke: #e5e9ed; stroke-width: 0.8; stroke-linecap: square"/>
     </g>
     <g id="line2d_10">
      <g>
       <use xlink:href="#mcf046e140f" x="182.410387" y="127.572395" style="stroke: #000000; stroke-width: 0.8"/>
      </g>
     </g>
     <g id="text_5">
      <text style="font-size: 8px; font-family: 'Nimbus Sans'; text-anchor: middle" x="182.410387" y="140.404895" transform="rotate(-0 182.410387 140.404895)">80</text>
     </g>
    </g>
    <g id="xtick_6">
     <g id="line2d_11">
      <path d="M 215.312948 127.572395
L 215.312948 34.486328
" clip-path="url(#pb4f4a1c910)" style="fill: none; stroke: #e5e9ed; stroke-width: 0.8; stroke-linecap: square"/>
     </g>
     <g id="line2d_12">
      <g>
       <use xlink:href="#mcf046e140f" x="215.312948" y="127.572395" style="stroke: #000000; stroke-width: 0.8"/>
      </g>
     </g>
     <g id="text_6">
      <text style="font-size: 8px; font-family: 'Nimbus Sans'; text-anchor: middle" x="215.312948" y="140.404895" transform="rotate(-0 215.312948 140.404895)">100</text>
     </g>
    </g>
    <g id="text_7">
     <text style="font-size: 9px; font-family: 'Nimbus Sans'; text-anchor: middle" x="142.104749" y="152.817083" transform="rotate(-0 142.104749 152.817083)">Share of cognitively engaged turns (%)</text>
    </g>
   </g>
   <g id="matplotlib.axis_2">
    <g id="ytick_1">
     <g id="line2d_13"/>
     <g id="text_8">
      <text style="font-size: 8px; font-family: 'Nimbus Sans'; text-anchor: end" x="48.80014" y="56.695145" transform="rotate(-0 48.80014 56.695145)">WC coding</text>
     </g>
    </g>
    <g id="ytick_2">
     <g id="line2d_14"/>
     <g id="text_9">
      <text style="font-size: 8px; font-family: 'Nimbus Sans'; text-anchor: end" x="48.80014" y="111.291079" transform="rotate(-0 48.80014 111.291079)">WC writing</text>
     </g>
    </g>
   </g>
   <g id="patch_3">
    <path d="M 50.80014 38.717513
L 183.068438 38.717513
L 183.068438 68.745277
L 50.80014 68.745277
z
" clip-path="url(#pb4f4a1c910)" style="fill: #9dc4d5; stroke: #ffffff; stroke-width: 0.8; stroke-linejoin: miter"/>
   </g>
   <g id="patch_4">
    <path d="M 50.80014 93.313447
L 181.587823 93.313447
L 181.587823 123.341211
L 50.80014 123.341211
z
" clip-path="url(#pb4f4a1c910)" style="fill: #9dc4d5; stroke: #ffffff; stroke-width: 0.8; stroke-linejoin: miter"/>
   </g>
   <g id="patch_5">
    <path d="M 183.068438 38.717513
L 213.338795 38.717513
L 213.338795 68.745277
L 183.068438 68.745277
z
" clip-path="url(#pb4f4a1c910)" style="fill: #2e7c6b; stroke: #ffffff; stroke-width: 0.8; stroke-linejoin: miter"/>
   </g>
   <g id="patch_6">
    <path d="M 181.587823 93.313447
L 203.961565 93.313447
L 203.961565 123.341211
L 181.587823 123.341211
z
" clip-path="url(#pb4f4a1c910)" style="fill: #2e7c6b; stroke: #ffffff; stroke-width: 0.8; stroke-linejoin: miter"/>
   </g>
   <g id="patch_7">
    <path d="M 213.338795 38.717513
L 215.312948 38.717513
L 215.312948 68.745277
L 213.338795 68.745277
z
" clip-path="url(#pb4f4a1c910)" style="fill: #d7dadf; stroke: #ffffff; stroke-width: 0.8; stroke-linejoin: miter"/>
   </g>
   <g id="patch_8">
    <path d="M 203.961565 93.313447
L 215.312948 93.313447
L 215.312948 123.341211
L 203.961565 123.341211
z
" clip-path="url(#pb4f4a1c910)" style="fill: #d7dadf; stroke: #ffffff; stroke-width: 0.8; stroke-linejoin: miter"/>
   </g>
   <g id="patch_9">
    <path d="M 50.80014 127.572395
L 233.409357 127.572395
" style="fill: none; stroke: #000000; stroke-width: 0.75; stroke-linejoin: miter; stroke-linecap: square"/>
   </g>
   <g id="text_10">
    <text style="font-size: 8px; font-family: 'Nimbus Sans'; text-anchor: middle; fill: #17212b" x="116.934289" y="55.77577" transform="rotate(-0 116.934289 55.77577)">80.4</text>
   </g>
   <g id="text_11">
    <text style="font-size: 8px; font-family: 'Nimbus Sans'; text-anchor: middle; fill: #ffffff" x="198.203616" y="55.77577" transform="rotate(-0 198.203616 55.77577)">18.4</text>
   </g>
   <g id="text_12">
    <text style="font-size: 7.8px; font-family: 'Nimbus Sans'; text-anchor: start; fill: #5d6874" x="217.780641" y="55.72466" transform="rotate(-0 217.780641 55.72466)">P 1.2</text>
   </g>
   <g id="text_13">
    <text style="font-size: 8px; font-family: 'Nimbus Sans'; text-anchor: middle; fill: #17212b" x="116.193981" y="110.371704" transform="rotate(-0 116.193981 110.371704)">79.5</text>
   </g>
   <g id="text_14">
    <text style="font-size: 8px; font-family: 'Nimbus Sans'; text-anchor: middle; fill: #ffffff" x="192.774694" y="110.371704" transform="rotate(-0 192.774694 110.371704)">13.6</text>
   </g>
   <g id="text_15">
    <text style="font-size: 7.8px; font-family: 'Nimbus Sans'; text-anchor: start; fill: #5d6874" x="217.780641" y="110.320594" transform="rotate(-0 217.780641 110.320594)">P 6.9</text>
   </g>
   <g id="text_16">
    <text style="font-weight: 700; font-size: 13px; font-family: 'Nimbus Sans'; text-anchor: start" x="17.930481" y="27.039443" transform="rotate(-0 17.930481 27.039443)">a</text>
   </g>
   <g id="text_17">
    <text style="font-size: 10.5px; font-family: 'Nimbus Sans'; text-anchor: start" x="50.80014" y="9.486328" transform="rotate(-0 50.80014 9.486328)">Engagement composition</text>
   </g>
   <g id="legend_1">
    <g id="patch_10">
     <path d="M 66.680601 26.225362
L 74.180601 26.225362
L 74.180601 20.975362
L 66.680601 20.975362
z
" style="fill: #9dc4d5; stroke: #ffffff; stroke-width: 0.8; stroke-linejoin: miter"/>
    </g>
    <g id="text_18">
     <text style="font-size: 7.5px; font-family: 'Nimbus Sans'; text-anchor: start" x="80.180601" y="26.225362" transform="rotate(-0 80.180601 26.225362)">Active</text>
    </g>
    <g id="patch_11">
     <path d="M 105.852866 26.225362
L 113.352866 26.225362
L 113.352866 20.975362
L 105.852866 20.975362
z
" style="fill: #2e7c6b; stroke: #ffffff; stroke-width: 0.8; stroke-linejoin: miter"/>
    </g>
    <g id="text_19">
     <text style="font-size: 7.5px; font-family: 'Nimbus Sans'; text-anchor: start" x="119.352866" y="26.225362" transform="rotate(-0 119.352866 26.225362)">Constructive</text>
    </g>
    <g id="patch_12">
     <path d="M 166.278257 26.225362
L 173.778257 26.225362
L 173.778257 20.975362
L 166.278257 20.975362
z
" style="fill: #d7dadf; stroke: #ffffff; stroke-width: 0.8; stroke-linejoin: miter"/>
    </g>
    <g id="text_20">
     <text style="font-size: 7.5px; font-family: 'Nimbus Sans'; text-anchor: start" x="179.778257" y="26.225362" transform="rotate(-0 179.778257 26.225362)">Passive</text>
    </g>
   </g>
  </g>
  <g id="axes_2">
   <g id="patch_13">
    <path d="M 311.187357 127.572395
L 517.46814 127.572395
L 517.46814 34.486328
L 311.187357 34.486328
z
" style="fill: #ffffff"/>
   </g>
   <g id="matplotlib.axis_3">
    <g id="xtick_7">
     <g id="line2d_15"/>
     <g id="text_21">
      <text style="font-size: 8px; font-family: 'Nimbus Sans'; text-anchor: middle" x="357.600533" y="137.499895" transform="rotate(-0 357.600533 137.499895)">Cognitive</text>
     </g>
    </g>
    <g id="xtick_8">
     <g id="line2d_16"/>
     <g id="text_22">
      <text style="font-size: 8px; font-family: 'Nimbus Sans'; text-anchor: middle" x="471.054964" y="137.404895" transform="rotate(-0 471.054964 137.404895)">Constructive</text>
     </g>
    </g>
   </g>
   <g id="matplotlib.axis_4">
    <g id="ytick_3">
     <g id="line2d_17">
      <path d="M 311.187357 127.572395
L 517.46814 127.572395
" clip-path="url(#p411cb143c2)" style="fill: none; stroke: #e5e9ed; stroke-width: 0.8; stroke-linecap: square"/>
     </g>
     <g id="line2d_18">
      <defs>
       <path id="mc20f44ad43" d="M 0 0
L -3.5 0
" style="stroke: #000000; stroke-width: 0.8"/>
      </defs>
      <g>
       <use xlink:href="#mc20f44ad43" x="311.187357" y="127.572395" style="stroke: #000000; stroke-width: 0.8"/>
      </g>
     </g>
     <g id="text_23">
      <text style="font-size: 7.6px; font-family: 'Nimbus Sans'; text-anchor: end" x="304.187357" y="130.342833" transform="rotate(-0 304.187357 130.342833)">0</text>
     </g>
    </g>
    <g id="ytick_4">
     <g id="line2d_19">
      <path d="M 311.187357 108.955182
L 517.46814 108.955182
" clip-path="url(#p411cb143c2)" style="fill: none; stroke: #e5e9ed; stroke-width: 0.8; stroke-linecap: square"/>
     </g>
     <g id="line2d_20">
      <g>
       <use xlink:href="#mc20f44ad43" x="311.187357" y="108.955182" style="stroke: #000000; stroke-width: 0.8"/>
      </g>
     </g>
     <g id="text_24">
      <text style="font-size: 7.6px; font-family: 'Nimbus Sans'; text-anchor: end" x="304.187357" y="111.725619" transform="rotate(-0 304.187357 111.725619)">10</text>
     </g>
    </g>
    <g id="ytick_5">
     <g id="line2d_21">
      <path d="M 311.187357 90.337968
L 517.46814 90.337968
" clip-path="url(#p411cb143c2)" style="fill: none; stroke: #e5e9ed; stroke-width: 0.8; stroke-linecap: square"/>
     </g>
     <g id="line2d_22">
      <g>
       <use xlink:href="#mc20f44ad43" x="311.187357" y="90.337968" style="stroke: #000000; stroke-width: 0.8"/>
      </g>
     </g>
     <g id="text_25">
      <text style="font-size: 7.6px; font-family: 'Nimbus Sans'; text-anchor: end" x="304.187357" y="93.108406" transform="rotate(-0 304.187357 93.108406)">20</text>
     </g>
    </g>
    <g id="ytick_6">
     <g id="line2d_23">
      <path d="M 311.187357 71.720755
L 517.46814 71.720755
" clip-path="url(#p411cb143c2)" style="fill: none; stroke: #e5e9ed; stroke-width: 0.8; stroke-linecap: square"/>
     </g>
     <g id="line2d_24">
      <g>
       <use xlink:href="#mc20f44ad43" x="311.187357" y="71.720755" style="stroke: #000000; stroke-width: 0.8"/>
      </g>
     </g>
     <g id="text_26">
      <text style="font-size: 7.6px; font-family: 'Nimbus Sans'; text-anchor: end" x="304.187357" y="74.491193" transform="rotate(-0 304.187357 74.491193)">30</text>
     </g>
    </g>
    <g id="ytick_7">
     <g id="line2d_25">
      <path d="M 311.187357 53.103542
L 517.46814 53.103542
" clip-path="url(#p411cb143c2)" style="fill: none; stroke: #e5e9ed; stroke-width: 0.8; stroke-linecap: square"/>
     </g>
     <g id="line2d_26">
      <g>
       <use xlink:href="#mc20f44ad43" x="311.187357" y="53.103542" style="stroke: #000000; stroke-width: 0.8"/>
      </g>
     </g>
     <g id="text_27">
      <text style="font-size: 7.6px; font-family: 'Nimbus Sans'; text-anchor: end" x="304.187357" y="55.873979" transform="rotate(-0 304.187357 55.873979)">40</text>
     </g>
    </g>
    <g id="ytick_8">
     <g id="line2d_27">
      <path d="M 311.187357 34.486328
L 517.46814 34.486328
" clip-path="url(#p411cb143c2)" style="fill: none; stroke: #e5e9ed; stroke-width: 0.8; stroke-linecap: square"/>
     </g>
     <g id="line2d_28">
      <g>
       <use xlink:href="#mc20f44ad43" x="311.187357" y="34.486328" style="stroke: #000000; stroke-width: 0.8"/>
      </g>
     </g>
     <g id="text_28">
      <text style="font-size: 7.6px; font-family: 'Nimbus Sans'; text-anchor: end" x="304.187357" y="37.256766" transform="rotate(-0 304.187357 37.256766)">50</text>
     </g>
    </g>
    <g id="text_29">
     <text style="font-size: 9px; font-family: 'Nimbus Sans'; text-anchor: middle" x="289.775389" y="81.029362" transform="rotate(-90 289.775389 81.029362)">Lift (pp)</text>
    </g>
   </g>
   <g id="patch_14">
    <path d="M 319.78239 127.572395
L 350.724507 127.572395
L 350.724507 45.470484
L 319.78239 45.470484
z
" clip-path="url(#p411cb143c2)" style="fill: #2f5f83; stroke: #ffffff; stroke-width: 0.7; stroke-linejoin: miter"/>
   </g>
   <g id="patch_15">
    <path d="M 364.47656 127.572395
L 395.418677 127.572395
L 395.418677 94.619928
L 364.47656 94.619928
z
" clip-path="url(#p411cb143c2)" style="fill: #2e7c6b; stroke: #ffffff; stroke-width: 0.7; stroke-linejoin: miter"/>
   </g>
   <g id="patch_16">
    <path d="M 433.23682 127.572395
L 464.178938 127.572395
L 464.178938 113.795657
L 433.23682 113.795657
z
" clip-path="url(#p411cb143c2)" style="fill: #2f5f83; stroke: #ffffff; stroke-width: 0.7; stroke-linejoin: miter"/>
   </g>
   <g id="patch_17">
    <path d="M 477.93099 127.572395
L 508.873107 127.572395
L 508.873107 120.684026
L 477.93099 120.684026
z
" clip-path="url(#p411cb143c2)" style="fill: #2e7c6b; stroke: #ffffff; stroke-width: 0.7; stroke-linejoin: miter"/>
   </g>
   <g id="line2d_29">
    <path d="M 311.187357 127.572395
L 517.46814 127.572395
" clip-path="url(#p411cb143c2)" style="fill: none; stroke: #17212b; stroke-width: 0.8; stroke-linecap: square"/>
   </g>
   <g id="patch_18">
    <path d="M 311.187357 127.572395
L 311.187357 34.486328
" style="fill: none; stroke: #000000; stroke-width: 0.75; stroke-linejoin: miter; stroke-linecap: square"/>
   </g>
   <g id="patch_19">
    <path d="M 311.187357 127.572395
L 517.46814 127.572395
" style="fill: none; stroke: #000000; stroke-width: 0.75; stroke-linejoin: miter; stroke-linecap: square"/>
   </g>
   <g id="text_30">
    <text style="font-size: 7.8px; font-family: 'Nimbus Sans'; text-anchor: middle; fill: #17212b" x="335.253449" y="40.977746" transform="rotate(-0 335.253449 40.977746)">+44.1</text>
   </g>
   <g id="text_31">
    <text style="font-size: 7.8px; font-family: 'Nimbus Sans'; text-anchor: middle; fill: #17212b" x="379.947618" y="90.127189" transform="rotate(-0 379.947618 90.127189)">+17.7</text>
   </g>
   <g id="text_32">
    <text style="font-size: 7.8px; font-family: 'Nimbus Sans'; text-anchor: middle; fill: #17212b" x="448.707879" y="109.302919" transform="rotate(-0 448.707879 109.302919)">+7.4</text>
   </g>
   <g id="text_33">
    <text style="font-size: 7.8px; font-family: 'Nimbus Sans'; text-anchor: middle; fill: #17212b" x="493.402049" y="116.191288" transform="rotate(-0 493.402049 116.191288)">+3.7</text>
   </g>
   <g id="text_34">
    <text style="font-weight: 700; font-size: 13px; font-family: 'Nimbus Sans'; text-anchor: start" x="280.24524" y="27.039443" transform="rotate(-0 280.24524 27.039443)">b</text>
   </g>
   <g id="text_35">
    <text style="font-size: 10.5px; font-family: 'Nimbus Sans'; text-anchor: start" x="311.187357" y="9.486328" transform="rotate(-0 311.187357 9.486328)">Explicit learning framing</text>
   </g>
   <g id="legend_2">
    <g id="patch_20">
     <path d="M 414.149506 25.822143
L 421.349506 25.822143
L 421.349506 20.782143
L 414.149506 20.782143
z
" style="fill: #2f5f83"/>
    </g>
    <g id="text_36">
     <text style="font-size: 7.2px; font-family: 'Nimbus Sans'; text-anchor: start" x="427.109506" y="25.822143" transform="rotate(-0 427.109506 25.822143)">WC coding</text>
    </g>
    <g id="patch_21">
     <path d="M 467.356381 25.822143
L 474.556381 25.822143
L 474.556381 20.782143
L 467.356381 20.782143
z
" style="fill: #2e7c6b"/>
    </g>
    <g id="text_37">
     <text style="font-size: 7.2px; font-family: 'Nimbus Sans'; text-anchor: start" x="480.316381" y="25.822143" transform="rotate(-0 480.316381 25.822143)">WC writing</text>
    </g>
   </g>
  </g>
  <g id="axes_3">
   <g id="patch_22">
    <path d="M 50.80014 260.530328
L 517.46814 260.530328
L 517.46814 193.301502
L 50.80014 193.301502
z
" style="fill: #ffffff"/>
   </g>
   <g id="matplotlib.axis_5">
    <g id="xtick_9">
     <g id="line2d_30"/>
     <g id="text_38">
      <text style="font-size: 8px; font-family: 'Nimbus Sans'; text-anchor: middle" x="81.569459" y="270.362828" transform="rotate(-0 81.569459 270.362828)">2-3</text>
     </g>
    </g>
    <g id="xtick_10">
     <g id="line2d_31"/>
     <g id="text_39">
      <text style="font-size: 8px; font-family: 'Nimbus Sans'; text-anchor: middle" x="252.510118" y="270.362828" transform="rotate(-0 252.510118 270.362828)">4-6</text>
     </g>
    </g>
    <g id="xtick_11">
     <g id="line2d_32"/>
     <g id="text_40">
      <text style="font-size: 8px; font-family: 'Nimbus Sans'; text-anchor: middle" x="423.450777" y="270.362828" transform="rotate(-0 423.450777 270.362828)">7+</text>
     </g>
    </g>
    <g id="text_41">
     <text style="font-size: 9px; font-family: 'Nimbus Sans'; text-anchor: middle" x="284.13414" y="282.775016" transform="rotate(-0 284.13414 282.775016)">Conversation length (user turns)</text>
    </g>
   </g>
   <g id="matplotlib.axis_6">
    <g id="ytick_9">
     <g id="line2d_33">
      <path d="M 50.80014 260.530328
L 517.46814 260.530328
" clip-path="url(#p473794c60c)" style="fill: none; stroke: #e5e9ed; stroke-width: 0.8; stroke-linecap: square"/>
     </g>
     <g id="line2d_34">
      <g>
       <use xlink:href="#mc20f44ad43" x="50.80014" y="260.530328" style="stroke: #000000; stroke-width: 0.8"/>
      </g>
     </g>
     <g id="text_42">
      <text style="font-size: 8px; font-family: 'Nimbus Sans'; text-anchor: end" x="43.80014" y="263.446578" transform="rotate(-0 43.80014 263.446578)">0</text>
     </g>
    </g>
    <g id="ytick_10">
     <g id="line2d_35">
      <path d="M 50.80014 234.673087
L 517.46814 234.673087
" clip-path="url(#p473794c60c)" style="fill: none; stroke: #e5e9ed; stroke-width: 0.8; stroke-linecap: square"/>
     </g>
     <g id="line2d_36">
      <g>
       <use xlink:href="#mc20f44ad43" x="50.80014" y="234.673087" style="stroke: #000000; stroke-width: 0.8"/>
      </g>
     </g>
     <g id="text_43">
      <text style="font-size: 8px; font-family: 'Nimbus Sans'; text-anchor: end" x="43.80014" y="237.589337" transform="rotate(-0 43.80014 237.589337)">20</text>
     </g>
    </g>
    <g id="ytick_11">
     <g id="line2d_37">
      <path d="M 50.80014 208.815846
L 517.46814 208.815846
" clip-path="url(#p473794c60c)" style="fill: none; stroke: #e5e9ed; stroke-width: 0.8; stroke-linecap: square"/>
     </g>
     <g id="line2d_38">
      <g>
       <use xlink:href="#mc20f44ad43" x="50.80014" y="208.815846" style="stroke: #000000; stroke-width: 0.8"/>
      </g>
     </g>
     <g id="text_44">
      <text style="font-size: 8px; font-family: 'Nimbus Sans'; text-anchor: end" x="43.80014" y="211.732096" transform="rotate(-0 43.80014 211.732096)">40</text>
     </g>
    </g>
    <g id="text_45">
     <text style="font-size: 9px; font-family: 'Nimbus Sans'; text-anchor: middle" x="28.943421" y="226.915915" transform="rotate(-90 28.943421 226.915915)">Conversation share (%)</text>
    </g>
   </g>
   <g id="patch_23">
    <path d="M 50.80014 260.530328
L 50.80014 193.301502
" style="fill: none; stroke: #000000; stroke-width: 0.75; stroke-linejoin: miter; stroke-linecap: square"/>
   </g>
   <g id="patch_24">
    <path d="M 50.80014 260.530328
L 517.46814 260.530328
" style="fill: none; stroke: #000000; stroke-width: 0.75; stroke-linejoin: miter; stroke-linecap: square"/>
   </g>
   <g id="line2d_39">
    <path d="M 81.569459 241.008111
L 252.510118 223.554474
L 423.450777 200.670815
" clip-path="url(#p473794c60c)" style="fill: none; stroke: #2f5f83; stroke-width: 2; stroke-linecap: square"/>
    <defs>
     <path id="mfe674d36ed" d="M 0 2.4
C 0.636487 2.4 1.246992 2.147121 1.697056 1.697056
C 2.147121 1.246992 2.4 0.636487 2.4 0
C 2.4 -0.636487 2.147121 -1.246992 1.697056 -1.697056
C 1.246992 -2.147121 0.636487 -2.4 0 -2.4
C -0.636487 -2.4 -1.246992 -2.147121 -1.697056 -1.697056
C -2.147121 -1.246992 -2.4 -0.636487 -2.4 0
C -2.4 0.636487 -2.147121 1.246992 -1.697056 1.697056
C -1.246992 2.147121 -0.636487 2.4 0 2.4
z
" style="stroke: #ffffff; stroke-width: 0.8"/>
    </defs>
    <g clip-path="url(#p473794c60c)">
     <use xlink:href="#mfe674d36ed" x="81.569459" y="241.008111" style="fill: #2f5f83; stroke: #ffffff; stroke-width: 0.8"/>
     <use xlink:href="#mfe674d36ed" x="252.510118" y="223.554474" style="fill: #2f5f83; stroke: #ffffff; stroke-width: 0.8"/>
     <use xlink:href="#mfe674d36ed" x="423.450777" y="200.670815" style="fill: #2f5f83; stroke: #ffffff; stroke-width: 0.8"/>
    </g>
   </g>
   <g id="text_46">
    <text style="font-size: 7.8px; font-family: 'Nimbus Sans'; text-anchor: middle; fill: #2f5f83" x="81.569459" y="236.851517" transform="rotate(-0 81.569459 236.851517)">15.1%</text>
   </g>
   <g id="text_47">
    <text style="font-size: 7.8px; font-family: 'Nimbus Sans'; text-anchor: middle; fill: #2f5f83" x="252.510118" y="219.397879" transform="rotate(-0 252.510118 219.397879)">28.6%</text>
   </g>
   <g id="text_48">
    <text style="font-size: 7.8px; font-family: 'Nimbus Sans'; text-anchor: middle; fill: #2f5f83" x="423.450777" y="196.514221" transform="rotate(-0 423.450777 196.514221)">46.3%</text>
   </g>
   <g id="text_49">
    <text style="font-weight: 700; font-size: 8px; font-family: 'Nimbus Sans'; text-anchor: start; fill: #2f5f83" x="443.963656" y="202.76269" transform="rotate(-0 443.963656 202.76269)">WC coding</text>
   </g>
   <g id="line2d_40">
    <path d="M 81.569459 252.773156
L 252.510118 248.635997
L 423.450777 241.137397
" clip-path="url(#p473794c60c)" style="fill: none; stroke: #2e7c6b; stroke-width: 2; stroke-linecap: square"/>
    <defs>
     <path id="m5bfc22d2ac" d="M 0 2.4
C 0.636487 2.4 1.246992 2.147121 1.697056 1.697056
C 2.147121 1.246992 2.4 0.636487 2.4 0
C 2.4 -0.636487 2.147121 -1.246992 1.697056 -1.697056
C 1.246992 -2.147121 0.636487 -2.4 0 -2.4
C -0.636487 -2.4 -1.246992 -2.147121 -1.697056 -1.697056
C -2.147121 -1.246992 -2.4 -0.636487 -2.4 0
C -2.4 0.636487 -2.147121 1.246992 -1.697056 1.697056
C -1.246992 2.147121 -0.636487 2.4 0 2.4
z
" style="stroke: #ffffff; stroke-width: 0.8"/>
    </defs>
    <g clip-path="url(#p473794c60c)">
     <use xlink:href="#m5bfc22d2ac" x="81.569459" y="252.773156" style="fill: #2e7c6b; stroke: #ffffff; stroke-width: 0.8"/>
     <use xlink:href="#m5bfc22d2ac" x="252.510118" y="248.635997" style="fill: #2e7c6b; stroke: #ffffff; stroke-width: 0.8"/>
     <use xlink:href="#m5bfc22d2ac" x="423.450777" y="241.137397" style="fill: #2e7c6b; stroke: #ffffff; stroke-width: 0.8"/>
    </g>
   </g>
   <g id="text_50">
    <text style="font-size: 7.8px; font-family: 'Nimbus Sans'; text-anchor: middle; fill: #2e7c6b" x="81.569459" y="261.30414" transform="rotate(-0 81.569459 261.30414)">6.0%</text>
   </g>
   <g id="text_51">
    <text style="font-size: 7.8px; font-family: 'Nimbus Sans'; text-anchor: middle; fill: #2e7c6b" x="252.510118" y="257.166981" transform="rotate(-0 252.510118 257.166981)">9.2%</text>
   </g>
   <g id="text_52">
    <text style="font-size: 7.8px; font-family: 'Nimbus Sans'; text-anchor: middle; fill: #2e7c6b" x="423.450777" y="249.668381" transform="rotate(-0 423.450777 249.668381)">15.0%</text>
   </g>
   <g id="text_53">
    <text style="font-weight: 700; font-size: 8px; font-family: 'Nimbus Sans'; text-anchor: start; fill: #2e7c6b" x="443.963656" y="243.229272" transform="rotate(-0 443.963656 243.229272)">WC writing</text>
   </g>
   <g id="text_54">
    <text style="font-weight: 700; font-size: 13px; font-family: 'Nimbus Sans'; text-anchor: start" x="1.8" y="178.51116" transform="rotate(-0 1.8 178.51116)">c</text>
   </g>
   <g id="text_55">
    <text style="font-size: 10.5px; font-family: 'Nimbus Sans'; text-anchor: start" x="50.80014" y="186.301502" transform="rotate(-0 50.80014 186.301502)">Share with &gt;=1 constructive user turn</text>
   </g>
  </g>
  <g id="text_56">
   <text style="font-size: 7.4px; font-family: 'Nimbus Sans'; text-anchor: end; fill: #5d6874" x="522.83214" y="296.893928" transform="rotate(-0 522.83214 296.893928)">WC = WildChat; two WildChat task settings.</text>
  </g>
 </g>
 <defs>
  <clipPath id="pb4f4a1c910">
   <rect x="50.80014" y="34.486328" width="182.609217" height="93.086067"/>
  </clipPath>
  <clipPath id="p411cb143c2">
   <rect x="311.187357" y="34.486328" width="206.280783" height="93.086067"/>
  </clipPath>
  <clipPath id="p473794c60c">
   <rect x="50.80014" y="193.301502" width="466.668" height="67.228826"/>
  </clipPath>
 </defs>
</svg>
