<?xml version="1.0" encoding="UTF-8"?>
<svg xmlns="http://www.w3.org/2000/svg" width="1800" height="1000" viewBox="0 0 1800 1000" role="img" aria-label="Conceptual framework of everyday human–LLM interaction as a setting for informal learning">
<defs>
  <style>
    text { font-family: Arial, Helvetica, sans-serif; dominant-baseline: alphabetic; }
    .smallcaps { letter-spacing: 0.01em; }
  </style>
</defs>
<rect width="1800" height="1000" fill="white"/>

<rect x="40" y="60" width="500" height="880" rx="22" ry="22" fill="#F3F8FC" stroke="#163D6B" stroke-width="2.2"/>
<circle cx="100" cy="118" r="32" fill="#163D6B" stroke="none"/>
<text x="100" y="129" font-size="32" font-weight="700" fill="#FFFFFF" text-anchor="middle">a</text>
<text x="150" y="138" font-size="34" font-weight="700" fill="#163D6B" text-anchor="start">Interaction ecology</text>
<text x="150" y="187" font-size="22" font-weight="400" fill="#17202A" text-anchor="start">
<tspan x="150" dy="0">Naturalistic conversations are</tspan>
<tspan x="150" dy="37">observed within matched</tspan>
<tspan x="150" dy="37">usage contexts.</tspan>
</text>
<line x1="68" y1="295" x2="512" y2="295" stroke="#163D6B" stroke-width="2.2" stroke-linecap="round"/>
<circle cx="112" cy="384" r="48" fill="#E8F2FA" stroke="#B8CDE0" stroke-width="1.2"/>
<circle cx="112" cy="552" r="48" fill="#E8F2FA" stroke="#B8CDE0" stroke-width="1.2"/>
<circle cx="112" cy="720" r="48" fill="#E8F2FA" stroke="#B8CDE0" stroke-width="1.2"/>
<circle cx="105" cy="376" r="22" fill="#1E4E89" stroke="none" opacity="0.97"/>
<path d="M 90 396 L 84 414 L 102 402 Z" fill="#1E4E89"/>
<circle cx="131" cy="396" r="20" fill="#1E4E89" stroke="none" opacity="0.97"/>
<path d="M 143 412 L 157 424 L 147 405 Z" fill="#1E4E89"/>
<circle cx="96" cy="376" r="2.6" fill="#FFFFFF" stroke="none"/>
<circle cx="106" cy="376" r="2.6" fill="#FFFFFF" stroke="none"/>
<circle cx="116" cy="376" r="2.6" fill="#FFFFFF" stroke="none"/>
<text x="112" y="562" font-size="34" font-weight="700" fill="#163D6B" text-anchor="middle">&lt;/&gt;</text>
<path d="M 131 571 L 152 592 L 145 599 L 124 578 Z" fill="#1E4E89"/>
<path d="M 152 592 L 160 600 L 148 603 Z" fill="#163D6B"/>
<circle cx="112" cy="700" r="14" fill="#1E4E89" stroke="none"/>
<path d="M 84 760 C 88 730, 95 724, 112 724 C 129 724, 136 730, 140 760 Z" fill="#1E4E89"/>
<text x="200" y="366" font-size="25" font-weight="700" fill="#163D6B" text-anchor="start">Corpora</text>
<rect x="200" y="393" width="130" height="48" rx="10" ry="10" fill="#F8FBFE" stroke="#7FA4C8" stroke-width="1.5"/>
<text x="265.0" y="424.0" font-size="18" font-weight="600" fill="#163D6B" text-anchor="middle">WildChat</text>
<rect x="355" y="393" width="130" height="48" rx="10" ry="10" fill="#F8FBFE" stroke="#7FA4C8" stroke-width="1.5"/>
<text x="420.0" y="424.0" font-size="18" font-weight="600" fill="#163D6B" text-anchor="middle">LMSYS</text>
<line x1="68" y1="466" x2="512" y2="466" stroke="#AFC3D7" stroke-width="1.4" stroke-linecap="round" stroke-dasharray="4 6"/>
<text x="200" y="534" font-size="25" font-weight="700" fill="#163D6B" text-anchor="start">Task ecology</text>
<rect x="200" y="561" width="130" height="48" rx="10" ry="10" fill="#F8FBFE" stroke="#7FA4C8" stroke-width="1.5"/>
<text x="265.0" y="592.0" font-size="18" font-weight="600" fill="#163D6B" text-anchor="middle">Coding</text>
<rect x="355" y="561" width="130" height="48" rx="10" ry="10" fill="#F8FBFE" stroke="#7FA4C8" stroke-width="1.5"/>
<text x="420.0" y="592.0" font-size="18" font-weight="600" fill="#163D6B" text-anchor="middle">Writing</text>
<line x1="68" y1="634" x2="512" y2="634" stroke="#AFC3D7" stroke-width="1.4" stroke-linecap="round" stroke-dasharray="4 6"/>
<text x="200" y="702" font-size="25" font-weight="700" fill="#163D6B" text-anchor="start">User framing</text>
<rect x="200" y="729" width="135" height="48" rx="10" ry="10" fill="#F8FBFE" stroke="#7FA4C8" stroke-width="1.5"/>
<text x="267.5" y="760.0" font-size="18" font-weight="600" fill="#163D6B" text-anchor="middle">Intentional</text>
<rect x="360" y="729" width="135" height="48" rx="10" ry="10" fill="#F8FBFE" stroke="#7FA4C8" stroke-width="1.5"/>
<text x="427.5" y="760.0" font-size="18" font-weight="600" fill="#163D6B" text-anchor="middle">Unintentional</text>
<line x1="68" y1="825" x2="512" y2="825" stroke="#163D6B" stroke-width="2.0" stroke-linecap="round"/>
<text x="112" y="855" font-size="20" font-weight="400" fill="#17202A" text-anchor="start">
<tspan x="112" dy="0">Matched settings define the main</tspan>
<tspan x="112" dy="30">task-ecology contrasts; user intent is</tspan>
<tspan x="112" dy="30">analysed as a moderator.</tspan>
</text>
<path d="M 550 491 H 557 V 475 L 575 500 L 557 525 V 509 H 550 Z" fill="#566575" opacity="0.88"/>
<rect x="585" y="60" width="625" height="880" rx="22" ry="22" fill="#FFF7EE" stroke="#B46318" stroke-width="2.2"/>
<circle cx="645" cy="118" r="32" fill="#B46318" stroke="none"/>
<text x="645" y="129" font-size="32" font-weight="700" fill="#FFFFFF" text-anchor="middle">b</text>
<text x="695" y="138" font-size="33" font-weight="700" fill="#8D4A12" text-anchor="start">Turn-level behavioural coding</text>
<text x="695" y="188" font-size="22" font-weight="400" fill="#17202A" text-anchor="start">
<tspan x="695" dy="0">Alternating user and assistant turns are</tspan>
<tspan x="695" dy="38">coded for engagement and support.</tspan>
</text>
<rect x="620" y="270" width="145" height="90" rx="13" ry="13" fill="#F5FAFE" stroke="#7FA4C8" stroke-width="1.6"/>
<text x="692.5" y="308" font-size="23" font-weight="700" fill="#163D6B" text-anchor="middle">User t−1</text>
<text x="692.5" y="337" font-size="19" font-weight="400" fill="#17202A" text-anchor="middle">prior state</text>
<path d="M 785 306 H 799 V 290 L 817 315 L 799 340 V 324 H 785 Z" fill="#566575" opacity="0.88"/>
<rect x="835" y="270" width="165" height="90" rx="13" ry="13" fill="#FEF0DF" stroke="#E5A66A" stroke-width="1.7"/>
<text x="917.5" y="305" font-size="23" font-weight="700" fill="#8D4A12" text-anchor="middle">Assistant t</text>
<text x="917.5" y="333" font-size="19" font-weight="400" fill="#17202A" text-anchor="middle">response /</text>
<text x="917.5" y="356" font-size="19" font-weight="400" fill="#17202A" text-anchor="middle">support</text>
<path d="M 1020 306 H 1014 V 290 L 1032 315 L 1014 340 V 324 H 1020 Z" fill="#566575" opacity="0.88"/>
<rect x="1050" y="270" width="145" height="90" rx="13" ry="13" fill="#F5FAFE" stroke="#7FA4C8" stroke-width="1.6"/>
<text x="1122.5" y="308" font-size="23" font-weight="700" fill="#163D6B" text-anchor="middle">User t+1</text>
<text x="1122.5" y="337" font-size="19" font-weight="400" fill="#17202A" text-anchor="middle">uptake</text>
<line x1="617" y1="392" x2="1178" y2="392" stroke="#B46318" stroke-width="2.0" stroke-linecap="round"/>
<text x="627" y="448" font-size="24" font-weight="700" fill="#163D6B" text-anchor="start">User engagement codes</text>
<text x="925" y="448" font-size="23" font-weight="700" fill="#8D4A12" text-anchor="start">Assistant support codes</text>
<line x1="903" y1="418" x2="903" y2="808" stroke="#9DA8B3" stroke-width="1.8" stroke-linecap="round"/>
<circle cx="655" cy="508" r="26" fill="#F4F9FD" stroke="#7FA4C8" stroke-width="1.5"/>
<text x="655" y="517" font-size="26" font-weight="700" fill="#163D6B" text-anchor="middle">A</text>
<text x="701" y="515" font-size="21" font-weight="400" fill="#17202A" text-anchor="start">active uptake</text>
<circle cx="655" cy="593" r="26" fill="#F4F9FD" stroke="#7FA4C8" stroke-width="1.5"/>
<text x="655" y="602" font-size="26" font-weight="700" fill="#163D6B" text-anchor="middle">C</text>
<text x="701" y="600" font-size="21" font-weight="400" fill="#17202A" text-anchor="start">constructive move</text>
<circle cx="655" cy="678" r="26" fill="#F4F9FD" stroke="#7FA4C8" stroke-width="1.5"/>
<text x="655" y="687" font-size="26" font-weight="700" fill="#163D6B" text-anchor="middle">P</text>
<text x="701" y="685" font-size="21" font-weight="400" fill="#17202A" text-anchor="start">passive receipt</text>
<rect x="925" y="482" width="270" height="60" rx="10" ry="10" fill="#FFFCF7" stroke="#E5A66A" stroke-width="1.6"/>
<line x1="1003" y1="482" x2="1003" y2="542" stroke="#E5A66A" stroke-width="1.3" stroke-linecap="round"/>
<text x="964" y="521" font-size="27" font-weight="700" fill="#8D4A12" text-anchor="middle">S1</text>
<text x="1025" y="521" font-size="21" font-weight="400" fill="#17202A" text-anchor="start">direct response</text>
<rect x="925" y="558" width="270" height="60" rx="10" ry="10" fill="#FFFCF7" stroke="#E5A66A" stroke-width="1.6"/>
<line x1="1003" y1="558" x2="1003" y2="618" stroke="#E5A66A" stroke-width="1.3" stroke-linecap="round"/>
<text x="964" y="597" font-size="27" font-weight="700" fill="#8D4A12" text-anchor="middle">S2</text>
<text x="1025" y="597" font-size="21" font-weight="400" fill="#17202A" text-anchor="start">scaffold</text>
<text x="1060" y="652" font-size="24" font-weight="700" fill="#8D4A12" text-anchor="middle">S2 forms</text>
<rect x="925" y="685" width="82" height="58" rx="8" ry="8" fill="#FFFCF7" stroke="#E5A66A" stroke-width="1.4"/>
<text x="966" y="710" font-size="22" font-weight="700" fill="#8D4A12" text-anchor="middle">M1</text>
<text x="966" y="733" font-size="15.5" font-weight="400" fill="#17202A" text-anchor="middle">feedback</text>
<rect x="1019" y="685" width="82" height="58" rx="8" ry="8" fill="#FFFCF7" stroke="#E5A66A" stroke-width="1.4"/>
<text x="1060" y="710" font-size="22" font-weight="700" fill="#8D4A12" text-anchor="middle">M2</text>
<text x="1060" y="733" font-size="15.5" font-weight="400" fill="#17202A" text-anchor="middle">hint</text>
<rect x="1113" y="685" width="82" height="58" rx="8" ry="8" fill="#FFFCF7" stroke="#E5A66A" stroke-width="1.4"/>
<text x="1154" y="710" font-size="22" font-weight="700" fill="#8D4A12" text-anchor="middle">M3</text>
<text x="1154" y="733" font-size="15.5" font-weight="400" fill="#17202A" text-anchor="middle">instruct</text>
<rect x="925" y="761" width="82" height="58" rx="8" ry="8" fill="#FFFCF7" stroke="#E5A66A" stroke-width="1.4"/>
<text x="966" y="786" font-size="22" font-weight="700" fill="#8D4A12" text-anchor="middle">M4</text>
<text x="966" y="809" font-size="15.5" font-weight="400" fill="#17202A" text-anchor="middle">explain</text>
<rect x="1019" y="761" width="82" height="58" rx="8" ry="8" fill="#FFFCF7" stroke="#E5A66A" stroke-width="1.4"/>
<text x="1060" y="786" font-size="22" font-weight="700" fill="#8D4A12" text-anchor="middle">M5</text>
<text x="1060" y="809" font-size="15.5" font-weight="400" fill="#17202A" text-anchor="middle">model</text>
<rect x="1113" y="761" width="82" height="58" rx="8" ry="8" fill="#FFFCF7" stroke="#E5A66A" stroke-width="1.4"/>
<text x="1154" y="786" font-size="22" font-weight="700" fill="#8D4A12" text-anchor="middle">M6</text>
<text x="1154" y="809" font-size="15.5" font-weight="400" fill="#17202A" text-anchor="middle">question</text>
<line x1="617" y1="840" x2="1178" y2="840" stroke="#B46318" stroke-width="2.0" stroke-linecap="round"/>
<text x="905" y="873" font-size="20" font-weight="400" fill="#17202A" text-anchor="middle">
<tspan x="905" dy="0">Labels are behavioural signatures;</tspan>
<tspan x="905" dy="30">they do not directly measure durable learning outcomes.</tspan>
</text>
<path d="M 1220 491 H 1227 V 475 L 1245 500 L 1227 525 V 509 H 1220 Z" fill="#566575" opacity="0.88"/>
<rect x="1255" y="60" width="505" height="880" rx="22" ry="22" fill="#F7F4FB" stroke="#4A3377" stroke-width="2.2"/>
<circle cx="1315" cy="118" r="32" fill="#5B3F8E" stroke="none"/>
<text x="1315" y="129" font-size="32" font-weight="700" fill="#FFFFFF" text-anchor="middle">c</text>
<text x="1365" y="138" font-size="33" font-weight="700" fill="#4A3377" text-anchor="start">Scales of inference</text>
<text x="1365" y="188" font-size="22" font-weight="400" fill="#17202A" text-anchor="start">
<tspan x="1365" dy="0">The same behavioural codes support</tspan>
<tspan x="1365" dy="38">descriptive, associational, and local</tspan>
<tspan x="1365" dy="38">temporal analyses.</tspan>
</text>
<rect x="1283" y="325" width="449" height="155" rx="14" ry="14" fill="#FBFAFD" stroke="#B7A3D3" stroke-width="1.4"/>
<circle cx="1355" cy="400" r="48" fill="#ECE5F5" stroke="none"/>
<rect x="1330" y="398" width="14" height="22" rx="0" ry="0" fill="#5B3F8E" stroke="none"/>
<rect x="1355" y="380" width="14" height="40" rx="0" ry="0" fill="#5B3F8E" stroke="none"/>
<rect x="1380" y="360" width="14" height="60" rx="0" ry="0" fill="#5B3F8E" stroke="none"/>
<text x="1423" y="372" font-size="20" font-weight="700" fill="#4A3377" text-anchor="start">Prevalence and composition</text>
<text x="1423" y="405" font-size="18.5" font-weight="400" fill="#17202A" text-anchor="start">
<tspan x="1423" dy="0">How often do engagement</tspan>
<tspan x="1423" dy="24">signatures appear, and in</tspan>
<tspan x="1423" dy="24">what mix?</tspan>
</text>
<rect x="1283" y="512" width="449" height="155" rx="14" ry="14" fill="#FBFAFD" stroke="#B7A3D3" stroke-width="1.4"/>
<circle cx="1355" cy="587" r="48" fill="#ECE5F5" stroke="none"/>
<line x1="1333" y1="605" x2="1356" y2="561" stroke="#5B3F8E" stroke-width="3" stroke-linecap="round"/>
<line x1="1356" y1="561" x2="1381" y2="603" stroke="#5B3F8E" stroke-width="3" stroke-linecap="round"/>
<line x1="1333" y1="605" x2="1381" y2="603" stroke="#5B3F8E" stroke-width="3" stroke-linecap="round"/>
<circle cx="1333" cy="605" r="14" fill="#5B3F8E" stroke="none"/>
<circle cx="1333" cy="601" r="4" fill="#FFFFFF" stroke="none"/>
<path d="M 1326 613 C 1327 607, 1339 607, 1340 613" stroke="#FFFFFF" stroke-width="2" fill="none" stroke-linecap="round"/>
<circle cx="1356" cy="561" r="14" fill="#5B3F8E" stroke="none"/>
<circle cx="1356" cy="557" r="4" fill="#FFFFFF" stroke="none"/>
<path d="M 1349 569 C 1350 563, 1362 563, 1363 569" stroke="#FFFFFF" stroke-width="2" fill="none" stroke-linecap="round"/>
<circle cx="1381" cy="603" r="14" fill="#5B3F8E" stroke="none"/>
<circle cx="1381" cy="599" r="4" fill="#FFFFFF" stroke="none"/>
<path d="M 1374 611 C 1375 605, 1387 605, 1388 611" stroke="#FFFFFF" stroke-width="2" fill="none" stroke-linecap="round"/>
<text x="1423" y="559" font-size="20" font-weight="700" fill="#4A3377" text-anchor="start">Support association</text>
<text x="1423" y="592" font-size="18.5" font-weight="400" fill="#17202A" text-anchor="start">
<tspan x="1423" dy="0">Do scaffolded conversations</tspan>
<tspan x="1423" dy="24">contain richer constructive</tspan>
<tspan x="1423" dy="24">participation?</tspan>
</text>
<text x="1423" y="656" font-size="21" font-weight="700" fill="#4A3377" text-anchor="start">S2 → C</text>
<rect x="1283" y="695" width="449" height="155" rx="14" ry="14" fill="#FBFAFD" stroke="#B7A3D3" stroke-width="1.4"/>
<circle cx="1355" cy="770" r="48" fill="#ECE5F5" stroke="none"/>
<circle cx="1355" cy="770" r="34" fill="none" stroke="#5B3F8E" stroke-width="4"/>
<line x1="1355" y1="770" x2="1355" y2="746" stroke="#5B3F8E" stroke-width="4" stroke-linecap="round"/>
<line x1="1355" y1="770" x2="1374" y2="783" stroke="#5B3F8E" stroke-width="4" stroke-linecap="round"/>
<path d="M 1382 737 A 43 43 0 0 1 1396 769" fill="none" stroke="#5B3F8E" stroke-width="4" stroke-dasharray="7 8" stroke-linecap="round"/>
<path d="M 1377 737 L 1388 731 L 1387 744 Z" fill="#5B3F8E"/>
<text x="1423" y="742" font-size="20" font-weight="700" fill="#4A3377" text-anchor="start">Local state-dependent coupling</text>
<text x="1423" y="775" font-size="18.5" font-weight="400" fill="#17202A" text-anchor="start">
<tspan x="1423" dy="0">Does S2 predict next-turn</tspan>
<tspan x="1423" dy="24">constructive uptake given the</tspan>
<tspan x="1423" dy="24">prior user state?</tspan>
</text>
<line x1="1283" y1="870" x2="1732" y2="870" stroke="#4A3377" stroke-width="2.0" stroke-linecap="round"/>
<text x="1507.5" y="900" font-size="20" font-weight="400" fill="#17202A" text-anchor="middle">
<tspan x="1507.5" dy="0">Arrows indicate temporal order or</tspan>
<tspan x="1507.5" dy="30">analytic conditioning, not causal effects.</tspan>
</text>
</svg>
