<?xml version="1.0" encoding="UTF-8"?>
<svg xmlns="http://www.w3.org/2000/svg" width="3309" height="1045" viewBox="0 0 3309 1045" role="img" aria-label="Analytic framework for studying informal learning in everyday human-LLM interaction">
  <defs>
    <style>
      text { font-family: Arial, Helvetica, sans-serif; dominant-baseline: alphabetic; }
      .panel-title { font-size: 52px; font-weight: 700; }
      .subtitle { font-size: 38px; font-weight: 400; fill: #334150; }
      .section-title { font-size: 38px; font-weight: 700; }
      .chip { font-size: 31px; font-weight: 700; }
      .small-label { font-size: 24px; font-weight: 700; letter-spacing: .015em; }
      .body { font-size: 37px; font-weight: 400; fill: #1F2933; }
      .small-body { font-size: 31px; font-weight: 700; }
      .foot { font-size: 29px; font-weight: 400; fill: #4E5966; }
    </style>
    <marker id="arrow-grey" markerWidth="12" markerHeight="10" refX="10" refY="5" orient="auto" markerUnits="strokeWidth">
      <path d="M0,0 L10,5 L0,10 Z" fill="#6F7A85"/>
    </marker>
    <marker id="arrow-small-grey" markerWidth="10" markerHeight="8" refX="9" refY="4" orient="auto" markerUnits="strokeWidth">
      <path d="M0,0 L9,4 L0,8 Z" fill="#7A838C"/>
    </marker>
  </defs>

  <rect width="3309" height="1045" fill="#FFFFFF"/>

  <!-- Panel a -->
  <g id="panel-a">
    <rect x="2" y="3" width="862" height="1040" rx="46" fill="#F3F7FA" stroke="#204F75" stroke-width="4"/>
    <circle cx="86" cy="89" r="56" fill="#1F4E79"/>
    <text x="86" y="104" text-anchor="middle" font-size="44" font-weight="700" fill="#FFFFFF">a</text>
    <text class="panel-title" x="170" y="105" fill="#1F4E79">Everyday</text>
    <text class="panel-title" x="170" y="172" fill="#1F4E79">interaction contexts</text>
    <text class="subtitle" x="78" y="237">Naturalistic conversations in everyday use</text>
    <line x1="78" y1="274" x2="141" y2="274" stroke="#204F75" stroke-width="4" stroke-linecap="round"/>
    <line x1="139" y1="274" x2="786" y2="274" stroke="#204F75" stroke-width="4" stroke-linecap="round"/>

    <!-- data source icon -->
    <circle cx="122" cy="390" r="70" fill="#EAF3F8" stroke="#A7C7DF" stroke-width="2"/>
    <path d="M101 349 h37 c18 0 32 13 32 30 c0 17 -14 30 -32 30 h-22 l-35 20 l10 -25 c-10 -6 -16 -15 -16 -26 c0 -16 10 -29 26 -29z" fill="#1F4E79"/>
    <path d="M136 382 h27 c18 0 29 11 29 26 c0 15 -12 27 -31 27 h-22 l-31 19 l8 -24 c-8 -5 -13 -14 -13 -24 c0 -14 12 -24 33 -24z" fill="#2D5C84"/>
    <circle cx="100" cy="376" r="5" fill="#FFFFFF"/>
    <circle cx="116" cy="376" r="5" fill="#FFFFFF"/>
    <circle cx="132" cy="376" r="5" fill="#FFFFFF"/>
    <text class="section-title" x="246" y="384" fill="#1F4E79">Data sources</text>
    <rect x="245" y="425" width="169" height="74" fill="#FFFFFF" stroke="#78ABD3" stroke-width="3"/>
    <rect x="436" y="425" width="169" height="74" fill="#FFFFFF" stroke="#78ABD3" stroke-width="3"/>
    <rect x="627" y="425" width="169" height="74" fill="#FFFFFF" stroke="#78ABD3" stroke-width="3"/>
    <text class="chip" x="330" y="476" text-anchor="middle" fill="#1F4E79">WildChat</text>
    <text class="chip" x="521" y="476" text-anchor="middle" fill="#1F4E79">LMSYS</text>
    <text class="chip" x="712" y="476" text-anchor="middle" fill="#1F4E79">ShareChat</text>
    <line x1="78" y1="531" x2="789" y2="531" stroke="#B5CEE0" stroke-width="2.5" stroke-dasharray="10 9"/>

    <!-- task ecology icon -->
    <circle cx="122" cy="617" r="70" fill="#EAF3F8" stroke="#A7C7DF" stroke-width="2"/>
    <path d="M104 604 L80 618 L104 631" fill="none" stroke="#1F4E79" stroke-width="7" stroke-linecap="square" stroke-linejoin="miter"/>
    <path d="M140 604 L164 618 L140 631" fill="none" stroke="#1F4E79" stroke-width="7" stroke-linecap="square" stroke-linejoin="miter"/>
    <line x1="129" y1="594" x2="116" y2="642" stroke="#1F4E79" stroke-width="7"/>
    <text class="section-title" x="246" y="606" fill="#1F4E79">Task ecology</text>
    <rect x="246" y="643" width="210" height="72" fill="#FFFFFF" stroke="#78ABD3" stroke-width="3"/>
    <rect x="498" y="643" width="210" height="72" fill="#FFFFFF" stroke="#78ABD3" stroke-width="3"/>
    <text class="chip" x="351" y="687" text-anchor="middle" fill="#1F4E79">Coding</text>
    <text class="chip" x="603" y="687" text-anchor="middle" fill="#1F4E79">Writing</text>
    <line x1="78" y1="748" x2="789" y2="748" stroke="#B5CEE0" stroke-width="2.5" stroke-dasharray="10 9"/>

    <!-- user framing icon -->
    <circle cx="122" cy="844" r="70" fill="#EAF3F8" stroke="#A7C7DF" stroke-width="2"/>
    <circle cx="122" cy="814" r="20" fill="#1F4E79"/>
    <path d="M94 883 C98 848 111 830 122 830 C133 830 146 848 150 883 Z" fill="#1F4E79"/>
    <text class="section-title" x="246" y="810" fill="#1F4E79">User framing</text>
    <rect x="245" y="862" width="249" height="72" fill="#FFFFFF" stroke="#78ABD3" stroke-width="3"/>
    <rect x="517" y="862" width="273" height="72" fill="#FFFFFF" stroke="#78ABD3" stroke-width="3"/>
    <text class="chip" x="370" y="911" text-anchor="middle" fill="#1F4E79">Intentional</text>
    <text class="chip" x="654" y="911" text-anchor="middle" fill="#1F4E79">Unintentional</text>
    <line x1="78" y1="967" x2="786" y2="967" stroke="#204F75" stroke-width="4" stroke-linecap="round"/>
  </g>

  <!-- Between arrows -->
  <line x1="900" y1="526" x2="975" y2="526" stroke="#6F7A85" stroke-width="10" marker-end="url(#arrow-grey)"/>
  <line x1="2290" y1="526" x2="2363" y2="526" stroke="#6F7A85" stroke-width="10" marker-end="url(#arrow-grey)"/>

  <!-- Panel b -->
  <g id="panel-b">
    <rect x="1014" y="3" width="1240" height="1040" rx="46" fill="#FFF9F2" stroke="#B96B27" stroke-width="4"/>
    <circle cx="1099" cy="89" r="56" fill="#BF6C27"/>
    <text x="1099" y="104" text-anchor="middle" font-size="44" font-weight="700" fill="#FFFFFF">b</text>
    <text class="panel-title" x="1183" y="105" fill="#A65B21">Behavioural signatures</text>
    <text class="subtitle" x="1183" y="186">Translate learning-science constructs</text>
    <text class="subtitle" x="1183" y="237">into role-specific turn-level signals</text>
    <line x1="1093" y1="274" x2="2176" y2="274" stroke="#BF6C27" stroke-width="3" stroke-linecap="round"/>

    <!-- sequence row -->
    <rect x="1082" y="316" width="290" height="123" rx="20" fill="#F7FBFD" stroke="#79ADD3" stroke-width="3"/>
    <text x="1208" y="365" text-anchor="middle" font-size="37" font-weight="700" fill="#1F4E79">User</text>
    <text x="1285" y="365" text-anchor="middle" font-size="37" font-style="italic" fill="#1F4E79">t-1</text>
    <text x="1227" y="407" text-anchor="middle" font-size="32" font-weight="700" fill="#3E4957">prior state</text>
    <line x1="1391" y1="377" x2="1445" y2="377" stroke="#7A838C" stroke-width="4" marker-end="url(#arrow-small-grey)"/>
    <rect x="1464" y="314" width="340" height="124" rx="18" fill="#FFF9F2" stroke="#E6843B" stroke-width="3"/>
    <text x="1615" y="364" text-anchor="middle" font-size="37" font-weight="700" fill="#A65B21">Assistant</text>
    <text x="1726" y="364" text-anchor="middle" font-size="37" font-style="italic" fill="#A65B21">t</text>
    <text x="1634" y="408" text-anchor="middle" font-size="32" font-weight="700" fill="#3E4957">pedagogical support</text>
    <line x1="1828" y1="378" x2="1882" y2="378" stroke="#7A838C" stroke-width="4" marker-end="url(#arrow-small-grey)"/>
    <rect x="1905" y="314" width="290" height="124" rx="19" fill="#F7FBFD" stroke="#79ADD3" stroke-width="3"/>
    <text x="2030" y="364" text-anchor="middle" font-size="37" font-weight="700" fill="#1F4E79">User</text>
    <text x="2109" y="364" text-anchor="middle" font-size="37" font-style="italic" fill="#1F4E79">t+1</text>
    <text x="2050" y="407" text-anchor="middle" font-size="32" font-weight="700" fill="#3E4957">uptake</text>

    <!-- human outcome column -->
    <text class="small-label" x="1113" y="506" fill="#1F4E79">PRIMARY HUMAN OUTCOME</text>
    <text x="1113" y="558" font-size="38" font-weight="700" fill="#1F4E79">User engagement</text>
    <circle cx="1158" cy="632" r="36" fill="#F9FCFE" stroke="#79ADD3" stroke-width="2"/>
    <text x="1158" y="644" text-anchor="middle" font-size="37" font-weight="700" fill="#1F4E79">P</text>
    <text class="body" x="1226" y="645">passive receipt</text>
    <circle cx="1158" cy="720" r="36" fill="#F9FCFE" stroke="#79ADD3" stroke-width="2"/>
    <text x="1158" y="733" text-anchor="middle" font-size="37" font-weight="700" fill="#1F4E79">A</text>
    <text class="body" x="1226" y="733">active uptake</text>
    <circle cx="1158" cy="808" r="36" fill="#F5FFF8" stroke="#45A36D" stroke-width="3"/>
    <text x="1158" y="821" text-anchor="middle" font-size="37" font-weight="700" fill="#45A36D">C</text>
    <text x="1226" y="821" font-size="37" font-weight="700" fill="#49A36D">constructive engage</text>

    <line x1="1625" y1="478" x2="1625" y2="929" stroke="#B4BEC6" stroke-width="4"/>

    <!-- assistant support column -->
    <text class="small-label" x="1682" y="506" fill="#A65B21">INTERACTIONAL CONDITION</text>
    <text x="1682" y="558" font-size="38" font-weight="700" fill="#A65B21">Assistant support</text>
    <rect x="1682" y="600" width="520" height="91" fill="#FFFFFF" stroke="#E6843B" stroke-width="3"/>
    <text x="1942" y="655" text-anchor="middle" font-size="31" font-weight="700" fill="#000000">non-scaffolded reference</text>
    <rect x="1682" y="720" width="520" height="91" fill="#FFF2D6" stroke="#E6843B" stroke-width="3"/>
    <text x="1942" y="778" text-anchor="middle" font-size="31" font-weight="700" fill="#A65B21">scaffolded support</text>
    <line x1="1729" y1="794" x2="1729" y2="845" stroke="#8A949E" stroke-width="5" marker-end="url(#arrow-small-grey)"/>
    <line x1="2153" y1="794" x2="2153" y2="845" stroke="#8A949E" stroke-width="5" marker-end="url(#arrow-small-grey)"/>
    <rect x="1682" y="835" width="250" height="103" rx="18" fill="#FFFFFF" stroke="#E6843B" stroke-width="3"/>
    <rect x="1950" y="835" width="252" height="103" rx="18" fill="#FFFFFF" stroke="#E6843B" stroke-width="3"/>
    <text x="1807" y="876" text-anchor="middle" font-size="32" font-weight="700" fill="#A65B21">I1-I3</text>
    <text x="1807" y="917" text-anchor="middle" font-size="32" font-weight="700" fill="#1F2933">intents</text>
    <text x="2076" y="876" text-anchor="middle" font-size="32" font-weight="700" fill="#A65B21">M1-M6</text>
    <text x="2076" y="917" text-anchor="middle" font-size="32" font-weight="700" fill="#1F2933">means</text>
    <line x1="1093" y1="956" x2="2176" y2="956" stroke="#BF6C27" stroke-width="3" stroke-linecap="round"/>
    <text class="foot" x="1640" y="1006" text-anchor="middle">User behavioural signatures as proxy for potential learning outcome</text>
  </g>

  <!-- Panel c -->
  <g id="panel-c">
    <rect x="2405" y="3" width="902" height="1040" rx="46" fill="#FBF9FE" stroke="#6B538D" stroke-width="4"/>
    <circle cx="2490" cy="89" r="56" fill="#6B538D"/>
    <text x="2490" y="104" text-anchor="middle" font-size="44" font-weight="700" fill="#FFFFFF">c</text>
    <text class="panel-title" x="2574" y="105" fill="#57406F">From signals to evidence</text>
    <text class="subtitle" x="2555" y="186">Labels are transformed into descriptive</text>
    <text class="subtitle" x="2555" y="237">associational and temporal analyses</text>
    <line x1="2448" y1="274" x2="3259" y2="274" stroke="#6B538D" stroke-width="4" stroke-linecap="round"/>

    <rect x="2448" y="314" width="809" height="140" fill="#FFFFFF" stroke="#B69CE2" stroke-width="2.5"/>
    <circle cx="2532" cy="384" r="51" fill="#EEE7F5"/>
    <rect x="2495" y="389" width="14" height="25" fill="#6B538D"/>
    <rect x="2525" y="371" width="14" height="43" fill="#6B538D"/>
    <rect x="2555" y="352" width="14" height="62" fill="#6B538D"/>
    <text x="2602" y="371" font-size="32" font-weight="700" fill="#6B538D">Presence</text>
    <text x="2602" y="416" font-size="31" font-weight="700" fill="#1F2933">Is learning-oriented engagement visible?</text>

    <rect x="2448" y="546" width="809" height="140" fill="#FFFFFF" stroke="#B69CE2" stroke-width="2.5"/>
    <circle cx="2532" cy="616" r="51" fill="#EEE7F5"/>
    <circle cx="2513" cy="596" r="14" fill="#6B538D"/>
    <circle cx="2545" cy="596" r="14" fill="#6B538D"/>
    <path d="M2505 642 C2518 610 2530 610 2543 642" fill="none" stroke="#6B538D" stroke-width="6" stroke-linecap="round"/>
    <path d="M2558 642 C2548 613 2535 610 2522 642" fill="none" stroke="#6B538D" stroke-width="6" stroke-linecap="round"/>
    <text x="2602" y="604" font-size="32" font-weight="700" fill="#6B538D">Contextual variation</text>
    <text x="2602" y="648" font-size="31" font-weight="700" fill="#1F2933">Where is engagement concentrated?</text>

    <rect x="2448" y="772" width="809" height="140" fill="#FFFFFF" stroke="#B69CE2" stroke-width="2.5"/>
    <circle cx="2532" cy="842" r="51" fill="#EEE7F5"/>
    <circle cx="2532" cy="820" r="14" fill="#6B538D"/>
    <circle cx="2508" cy="862" r="14" fill="#6B538D"/>
    <circle cx="2556" cy="862" r="14" fill="#6B538D"/>
    <line x1="2532" y1="820" x2="2508" y2="862" stroke="#6B538D" stroke-width="6"/>
    <line x1="2532" y1="820" x2="2556" y2="862" stroke="#6B538D" stroke-width="6"/>
    <line x1="2508" y1="862" x2="2556" y2="862" stroke="#6B538D" stroke-width="6"/>
    <text x="2602" y="829" font-size="32" font-weight="700" fill="#6B538D">Scaffolding association</text>
    <text x="2602" y="873" font-size="31" font-weight="700" fill="#1F2933">How scaffolding aligns with engagement?</text>
    <line x1="2448" y1="956" x2="3259" y2="956" stroke="#6B538D" stroke-width="4" stroke-linecap="round"/>
  </g>
</svg>
