<?xml version="1.0" encoding="utf-8" standalone="no"?>
<!DOCTYPE svg PUBLIC "-//W3C//DTD SVG 1.1//EN"
  "http://www.w3.org/Graphics/SVG/1.1/DTD/svg11.dtd">
<svg xmlns:xlink="http://www.w3.org/1999/xlink" width="587.016066pt" height="344.236562pt" viewBox="0 0 587.016066 344.236562" xmlns="http://www.w3.org/2000/svg" version="1.1">
 <metadata>
  <rdf:RDF xmlns:dc="http://purl.org/dc/elements/1.1/" xmlns:cc="http://creativecommons.org/ns#" xmlns:rdf="http://www.w3.org/1999/02/22-rdf-syntax-ns#">
   <cc:Work>
    <dc:type rdf:resource="http://purl.org/dc/dcmitype/StillImage"/>
    <dc:date>2026-06-09T17:03:20.478755</dc:date>
    <dc:format>image/svg+xml</dc:format>
    <dc:creator>
     <cc:Agent>
      <dc:title>Matplotlib v3.10.8, https://matplotlib.org/</dc:title>
     </cc:Agent>
    </dc:creator>
   </cc:Work>
  </rdf:RDF>
 </metadata>
 <defs>
  <style type="text/css">*{stroke-linejoin: round; stroke-linecap: butt}</style>
 </defs>
 <g id="figure_1">
  <g id="patch_1">
   <path d="M 0 344.236562
L 587.016066 344.236562
L 587.016066 0
L 0 0
z
" style="fill: #ffffff"/>
  </g>
  <g id="axes_1">
   <g id="patch_2">
    <path d="M 60.016875 146.046948
L 252.125425 146.046948
L 252.125425 51.7
L 60.016875 51.7
z
" style="fill: #ffffff"/>
   </g>
   <g id="line2d_1">
    <path d="M 156.07115 55.988498
L 226.217208 55.988498
" clip-path="url(#pf6d6c40ed8)" style="fill: none; stroke: #b9c2cb; stroke-width: 2.4; stroke-linecap: square"/>
   </g>
   <g id="line2d_2">
    <path d="M 128.576715 84.578482
L 164.002237 84.578482
" clip-path="url(#pf6d6c40ed8)" style="fill: none; stroke: #b9c2cb; stroke-width: 2.4; stroke-linecap: square"/>
   </g>
   <g id="line2d_3">
    <path d="M 94.561165 113.168466
L 116.768208 113.168466
" clip-path="url(#pf6d6c40ed8)" style="fill: none; stroke: #b9c2cb; stroke-width: 2.4; stroke-linecap: square"/>
   </g>
   <g id="line2d_4">
    <path d="M 78.346498 141.758451
L 99.67231 141.758451
" clip-path="url(#pf6d6c40ed8)" style="fill: none; stroke: #b9c2cb; stroke-width: 2.4; stroke-linecap: square"/>
   </g>
   <g id="matplotlib.axis_1">
    <g id="xtick_1">
     <g id="line2d_5">
      <path d="M 60.016875 146.046948
L 60.016875 51.7
" clip-path="url(#pf6d6c40ed8)" style="fill: none; stroke: #e5e9ed; stroke-width: 0.8; stroke-linecap: square"/>
     </g>
     <g id="line2d_6">
      <defs>
       <path id="m5ba954a1c1" d="M 0 0
L 0 3.5
" style="stroke: #000000; stroke-width: 0.8"/>
      </defs>
      <g>
       <use xlink:href="#m5ba954a1c1" x="60.016875" y="146.046948" style="stroke: #000000; stroke-width: 0.8"/>
      </g>
     </g>
     <g id="text_1">
      <text style="font-size: 8.5px; font-family: 'Nimbus Sans'; text-anchor: middle" x="60.016875" y="159.24398" transform="rotate(-0 60.016875 159.24398)">0</text>
     </g>
    </g>
    <g id="xtick_2">
     <g id="line2d_7">
      <path d="M 95.26615 146.046948
L 95.26615 51.7
" clip-path="url(#pf6d6c40ed8)" style="fill: none; stroke: #e5e9ed; stroke-width: 0.8; stroke-linecap: square"/>
     </g>
     <g id="line2d_8">
      <g>
       <use xlink:href="#m5ba954a1c1" x="95.26615" y="146.046948" style="stroke: #000000; stroke-width: 0.8"/>
      </g>
     </g>
     <g id="text_2">
      <text style="font-size: 8.5px; font-family: 'Nimbus Sans'; text-anchor: middle" x="95.26615" y="159.24398" transform="rotate(-0 95.26615 159.24398)">2</text>
     </g>
    </g>
    <g id="xtick_3">
     <g id="line2d_9">
      <path d="M 130.515425 146.046948
L 130.515425 51.7
" clip-path="url(#pf6d6c40ed8)" style="fill: none; stroke: #e5e9ed; stroke-width: 0.8; stroke-linecap: square"/>
     </g>
     <g id="line2d_10">
      <g>
       <use xlink:href="#m5ba954a1c1" x="130.515425" y="146.046948" style="stroke: #000000; stroke-width: 0.8"/>
      </g>
     </g>
     <g id="text_3">
      <text style="font-size: 8.5px; font-family: 'Nimbus Sans'; text-anchor: middle" x="130.515425" y="159.24398" transform="rotate(-0 130.515425 159.24398)">4</text>
     </g>
    </g>
    <g id="xtick_4">
     <g id="line2d_11">
      <path d="M 165.764701 146.046948
L 165.764701 51.7
" clip-path="url(#pf6d6c40ed8)" style="fill: none; stroke: #e5e9ed; stroke-width: 0.8; stroke-linecap: square"/>
     </g>
     <g id="line2d_12">
      <g>
       <use xlink:href="#m5ba954a1c1" x="165.764701" y="146.046948" style="stroke: #000000; stroke-width: 0.8"/>
      </g>
     </g>
     <g id="text_4">
      <text style="font-size: 8.5px; font-family: 'Nimbus Sans'; text-anchor: middle" x="165.764701" y="159.24398" transform="rotate(-0 165.764701 159.24398)">6</text>
     </g>
    </g>
    <g id="xtick_5">
     <g id="line2d_13">
      <path d="M 201.013976 146.046948
L 201.013976 51.7
" clip-path="url(#pf6d6c40ed8)" style="fill: none; stroke: #e5e9ed; stroke-width: 0.8; stroke-linecap: square"/>
     </g>
     <g id="line2d_14">
      <g>
       <use xlink:href="#m5ba954a1c1" x="201.013976" y="146.046948" style="stroke: #000000; stroke-width: 0.8"/>
      </g>
     </g>
     <g id="text_5">
      <text style="font-size: 8.5px; font-family: 'Nimbus Sans'; text-anchor: middle" x="201.013976" y="159.24398" transform="rotate(-0 201.013976 159.24398)">8</text>
     </g>
    </g>
    <g id="xtick_6">
     <g id="line2d_15">
      <path d="M 236.263251 146.046948
L 236.263251 51.7
" clip-path="url(#pf6d6c40ed8)" style="fill: none; stroke: #e5e9ed; stroke-width: 0.8; stroke-linecap: square"/>
     </g>
     <g id="line2d_16">
      <g>
       <use xlink:href="#m5ba954a1c1" x="236.263251" y="146.046948" style="stroke: #000000; stroke-width: 0.8"/>
      </g>
     </g>
     <g id="text_6">
      <text style="font-size: 8.5px; font-family: 'Nimbus Sans'; text-anchor: middle" x="236.263251" y="159.24398" transform="rotate(-0 236.263251 159.24398)">10</text>
     </g>
    </g>
    <g id="text_7">
     <text style="font-size: 9.5px; font-family: 'Nimbus Sans'; text-anchor: middle" x="156.07115" y="172.079214" transform="rotate(-0 156.07115 172.079214)">Constructive user turns (%)</text>
    </g>
   </g>
   <g id="matplotlib.axis_2">
    <g id="ytick_1">
     <g id="line2d_17"/>
     <g id="text_8">
      <text style="font-size: 8.5px; font-family: 'Nimbus Sans'; text-anchor: end" x="58.016875" y="59.137482" transform="rotate(-0 58.016875 59.137482)">WC coding</text>
     </g>
    </g>
    <g id="ytick_2">
     <g id="line2d_18"/>
     <g id="text_9">
      <text style="font-size: 8.5px; font-family: 'Nimbus Sans'; text-anchor: end" x="58.016875" y="87.727466" transform="rotate(-0 58.016875 87.727466)">LMSYS coding</text>
     </g>
    </g>
    <g id="ytick_3">
     <g id="line2d_19"/>
     <g id="text_10">
      <text style="font-size: 8.5px; font-family: 'Nimbus Sans'; text-anchor: end" x="58.016875" y="116.317451" transform="rotate(-0 58.016875 116.317451)">WC writing</text>
     </g>
    </g>
    <g id="ytick_4">
     <g id="line2d_20"/>
     <g id="text_11">
      <text style="font-size: 8.5px; font-family: 'Nimbus Sans'; text-anchor: end" x="58.016875" y="144.907435" transform="rotate(-0 58.016875 144.907435)">LMSYS writing</text>
     </g>
    </g>
   </g>
   <g id="patch_3">
    <path d="M 60.016875 146.046948
L 252.125425 146.046948
" style="fill: none; stroke: #000000; stroke-width: 0.8; stroke-linejoin: miter; stroke-linecap: square"/>
   </g>
   <g id="PathCollection_1">
    <defs>
     <path id="ma19e1dfbab" d="M 0 3.807887
C 1.009863 3.807887 1.978501 3.406664 2.692582 2.692582
C 3.406664 1.978501 3.807887 1.009863 3.807887 0
C 3.807887 -1.009863 3.406664 -1.978501 2.692582 -2.692582
C 1.978501 -3.406664 1.009863 -3.807887 0 -3.807887
C -1.009863 -3.807887 -1.978501 -3.406664 -2.692582 -2.692582
C -3.406664 -1.978501 -3.807887 -1.009863 -3.807887 0
C -3.807887 1.009863 -3.406664 1.978501 -2.692582 2.692582
C -1.978501 3.406664 -1.009863 3.807887 0 3.807887
z
" style="stroke: #ffffff; stroke-width: 0.8"/>
    </defs>
    <g clip-path="url(#pf6d6c40ed8)">
     <use xlink:href="#ma19e1dfbab" x="156.07115" y="55.988498" style="fill: #b9c3cf; stroke: #ffffff; stroke-width: 0.8"/>
    </g>
   </g>
   <g id="PathCollection_2">
    <defs>
     <path id="m0fb4113427" d="M 0 3.807887
C 1.009863 3.807887 1.978501 3.406664 2.692582 2.692582
C 3.406664 1.978501 3.807887 1.009863 3.807887 0
C 3.807887 -1.009863 3.406664 -1.978501 2.692582 -2.692582
C 1.978501 -3.406664 1.009863 -3.807887 0 -3.807887
C -1.009863 -3.807887 -1.978501 -3.406664 -2.692582 -2.692582
C -3.406664 -1.978501 -3.807887 -1.009863 -3.807887 0
C -3.807887 1.009863 -3.406664 1.978501 -2.692582 2.692582
C -1.978501 3.406664 -1.009863 3.807887 0 3.807887
z
" style="stroke: #ffffff; stroke-width: 0.8"/>
    </defs>
    <g clip-path="url(#pf6d6c40ed8)">
     <use xlink:href="#m0fb4113427" x="226.217208" y="55.988498" style="fill: #2e7c6b; stroke: #ffffff; stroke-width: 0.8"/>
    </g>
   </g>
   <g id="text_12">
    <text style="font-size: 7.3px; font-family: 'Nimbus Sans'; text-anchor: middle; fill: #5d6874" x="156.07115" y="65.573286" transform="rotate(-0 156.07115 65.573286)">5.5</text>
   </g>
   <g id="text_13">
    <text style="font-size: 7.3px; font-family: 'Nimbus Sans'; text-anchor: middle; fill: #17212b" x="226.217208" y="50.134694" transform="rotate(-0 226.217208 50.134694)">9.4</text>
   </g>
   <g id="text_14">
    <text style="font-size: 8.3px; font-family: 'Nimbus Sans'; text-anchor: start; fill: #17212b" x="233.90155" y="58.109537" transform="rotate(-0 233.90155 58.109537)">+4.0</text>
   </g>
   <g id="PathCollection_3">
    <g clip-path="url(#pf6d6c40ed8)">
     <use xlink:href="#ma19e1dfbab" x="128.576715" y="84.578482" style="fill: #b9c3cf; stroke: #ffffff; stroke-width: 0.8"/>
    </g>
   </g>
   <g id="PathCollection_4">
    <g clip-path="url(#pf6d6c40ed8)">
     <use xlink:href="#m0fb4113427" x="164.002237" y="84.578482" style="fill: #2e7c6b; stroke: #ffffff; stroke-width: 0.8"/>
    </g>
   </g>
   <g id="text_15">
    <text style="font-size: 7.3px; font-family: 'Nimbus Sans'; text-anchor: middle; fill: #5d6874" x="128.576715" y="94.16327" transform="rotate(-0 128.576715 94.16327)">3.9</text>
   </g>
   <g id="text_16">
    <text style="font-size: 7.3px; font-family: 'Nimbus Sans'; text-anchor: middle; fill: #17212b" x="164.002237" y="78.724678" transform="rotate(-0 164.002237 78.724678)">5.9</text>
   </g>
   <g id="text_17">
    <text style="font-size: 8.3px; font-family: 'Nimbus Sans'; text-anchor: start; fill: #17212b" x="171.686579" y="86.699521" transform="rotate(-0 171.686579 86.699521)">+2.0</text>
   </g>
   <g id="PathCollection_5">
    <g clip-path="url(#pf6d6c40ed8)">
     <use xlink:href="#ma19e1dfbab" x="94.561165" y="113.168466" style="fill: #b9c3cf; stroke: #ffffff; stroke-width: 0.8"/>
    </g>
   </g>
   <g id="PathCollection_6">
    <g clip-path="url(#pf6d6c40ed8)">
     <use xlink:href="#m0fb4113427" x="116.768208" y="113.168466" style="fill: #2e7c6b; stroke: #ffffff; stroke-width: 0.8"/>
    </g>
   </g>
   <g id="text_18">
    <text style="font-size: 7.3px; font-family: 'Nimbus Sans'; text-anchor: middle; fill: #5d6874" x="94.561165" y="122.753254" transform="rotate(-0 94.561165 122.753254)">2.0</text>
   </g>
   <g id="text_19">
    <text style="font-size: 7.3px; font-family: 'Nimbus Sans'; text-anchor: middle; fill: #17212b" x="116.768208" y="107.314663" transform="rotate(-0 116.768208 107.314663)">3.2</text>
   </g>
   <g id="text_20">
    <text style="font-size: 8.3px; font-family: 'Nimbus Sans'; text-anchor: start; fill: #17212b" x="124.45255" y="115.289505" transform="rotate(-0 124.45255 115.289505)">+1.3</text>
   </g>
   <g id="PathCollection_7">
    <g clip-path="url(#pf6d6c40ed8)">
     <use xlink:href="#ma19e1dfbab" x="78.346498" y="141.758451" style="fill: #b9c3cf; stroke: #ffffff; stroke-width: 0.8"/>
    </g>
   </g>
   <g id="PathCollection_8">
    <g clip-path="url(#pf6d6c40ed8)">
     <use xlink:href="#m0fb4113427" x="99.67231" y="141.758451" style="fill: #2e7c6b; stroke: #ffffff; stroke-width: 0.8"/>
    </g>
   </g>
   <g id="text_21">
    <text style="font-size: 7.3px; font-family: 'Nimbus Sans'; text-anchor: middle; fill: #5d6874" x="78.346498" y="135.904647" transform="rotate(-0 78.346498 135.904647)">1.0</text>
   </g>
   <g id="text_22">
    <text style="font-size: 7.3px; font-family: 'Nimbus Sans'; text-anchor: middle; fill: #17212b" x="99.67231" y="135.904647" transform="rotate(-0 99.67231 135.904647)">2.2</text>
   </g>
   <g id="text_23">
    <text style="font-size: 8.3px; font-family: 'Nimbus Sans'; text-anchor: start; fill: #17212b" x="107.356652" y="143.87949" transform="rotate(-0 107.356652 143.87949)">+1.2</text>
   </g>
   <g id="text_24">
    <text style="font-weight: 700; font-size: 14px; font-family: 'Nimbus Sans'; text-anchor: start" x="29.279507" y="46.039183" transform="rotate(-0 29.279507 46.039183)">a</text>
   </g>
   <g id="text_25">
    <text style="font-size: 11px; font-family: 'Nimbus Sans'; text-anchor: start" x="60.016875" y="43.7" transform="rotate(-0 60.016875 43.7)">Conversation-level constructive ratio</text>
   </g>
  </g>
  <g id="axes_2">
   <g id="patch_4">
    <path d="M 337.465954 146.046948
L 551.740875 146.046948
L 551.740875 51.7
L 337.465954 51.7
z
" style="fill: #ffffff"/>
   </g>
   <g id="line2d_21">
    <path d="M 349.260904 55.988498
L 516.749191 55.988498
" clip-path="url(#p454f59bed6)" style="fill: none; stroke: #c9d2d9; stroke-width: 1.5; stroke-linecap: square"/>
   </g>
   <g id="line2d_22">
    <path d="M 349.260904 62.341828
L 498.860183 62.341828
" clip-path="url(#p454f59bed6)" style="fill: none; stroke: #c9d2d9; stroke-width: 1.5; stroke-linecap: square"/>
   </g>
   <g id="line2d_23">
    <path d="M 349.260904 82.460705
L 472.321546 82.460705
" clip-path="url(#p454f59bed6)" style="fill: none; stroke: #c9d2d9; stroke-width: 1.5; stroke-linecap: square"/>
   </g>
   <g id="line2d_24">
    <path d="M 349.260904 88.814035
L 455.808617 88.814035
" clip-path="url(#p454f59bed6)" style="fill: none; stroke: #c9d2d9; stroke-width: 1.5; stroke-linecap: square"/>
   </g>
   <g id="line2d_25">
    <path d="M 349.260904 108.932913
L 461.116344 108.932913
" clip-path="url(#p454f59bed6)" style="fill: none; stroke: #c9d2d9; stroke-width: 1.5; stroke-linecap: square"/>
   </g>
   <g id="line2d_26">
    <path d="M 349.260904 115.286243
L 435.167455 115.286243
" clip-path="url(#p454f59bed6)" style="fill: none; stroke: #c9d2d9; stroke-width: 1.5; stroke-linecap: square"/>
   </g>
   <g id="line2d_27">
    <path d="M 349.260904 135.405121
L 542.894663 135.405121
" clip-path="url(#p454f59bed6)" style="fill: none; stroke: #c9d2d9; stroke-width: 1.5; stroke-linecap: square"/>
   </g>
   <g id="line2d_28">
    <path d="M 349.260904 141.758451
L 499.449931 141.758451
" clip-path="url(#p454f59bed6)" style="fill: none; stroke: #c9d2d9; stroke-width: 1.5; stroke-linecap: square"/>
   </g>
   <g id="matplotlib.axis_3">
    <g id="xtick_7">
     <g id="line2d_29">
      <path d="M 349.260904 146.046948
L 349.260904 51.7
" clip-path="url(#p454f59bed6)" style="fill: none; stroke: #e5e9ed; stroke-width: 0.8; stroke-linecap: square"/>
     </g>
     <g id="line2d_30">
      <g>
       <use xlink:href="#m5ba954a1c1" x="349.260904" y="146.046948" style="stroke: #000000; stroke-width: 0.8"/>
      </g>
     </g>
     <g id="text_26">
      <text style="font-size: 8.5px; font-family: 'Nimbus Sans'; text-anchor: middle" x="349.260904" y="159.24398" transform="rotate(-0 349.260904 159.24398)">1.0</text>
     </g>
    </g>
    <g id="xtick_8">
     <g id="line2d_31">
      <path d="M 388.577403 146.046948
L 388.577403 51.7
" clip-path="url(#p454f59bed6)" style="fill: none; stroke: #e5e9ed; stroke-width: 0.8; stroke-linecap: square"/>
     </g>
     <g id="line2d_32">
      <g>
       <use xlink:href="#m5ba954a1c1" x="388.577403" y="146.046948" style="stroke: #000000; stroke-width: 0.8"/>
      </g>
     </g>
     <g id="text_27">
      <text style="font-size: 8.5px; font-family: 'Nimbus Sans'; text-anchor: middle" x="388.577403" y="159.24398" transform="rotate(-0 388.577403 159.24398)">1.2</text>
     </g>
    </g>
    <g id="xtick_9">
     <g id="line2d_33">
      <path d="M 427.893902 146.046948
L 427.893902 51.7
" clip-path="url(#p454f59bed6)" style="fill: none; stroke: #e5e9ed; stroke-width: 0.8; stroke-linecap: square"/>
     </g>
     <g id="line2d_34">
      <g>
       <use xlink:href="#m5ba954a1c1" x="427.893902" y="146.046948" style="stroke: #000000; stroke-width: 0.8"/>
      </g>
     </g>
     <g id="text_28">
      <text style="font-size: 8.5px; font-family: 'Nimbus Sans'; text-anchor: middle" x="427.893902" y="159.24398" transform="rotate(-0 427.893902 159.24398)">1.4</text>
     </g>
    </g>
    <g id="xtick_10">
     <g id="line2d_35">
      <path d="M 467.210402 146.046948
L 467.210402 51.7
" clip-path="url(#p454f59bed6)" style="fill: none; stroke: #e5e9ed; stroke-width: 0.8; stroke-linecap: square"/>
     </g>
     <g id="line2d_36">
      <g>
       <use xlink:href="#m5ba954a1c1" x="467.210402" y="146.046948" style="stroke: #000000; stroke-width: 0.8"/>
      </g>
     </g>
     <g id="text_29">
      <text style="font-size: 8.5px; font-family: 'Nimbus Sans'; text-anchor: middle" x="467.210402" y="159.24398" transform="rotate(-0 467.210402 159.24398)">1.6</text>
     </g>
    </g>
    <g id="xtick_11">
     <g id="line2d_37">
      <path d="M 506.526901 146.046948
L 506.526901 51.7
" clip-path="url(#p454f59bed6)" style="fill: none; stroke: #e5e9ed; stroke-width: 0.8; stroke-linecap: square"/>
     </g>
     <g id="line2d_38">
      <g>
       <use xlink:href="#m5ba954a1c1" x="506.526901" y="146.046948" style="stroke: #000000; stroke-width: 0.8"/>
      </g>
     </g>
     <g id="text_30">
      <text style="font-size: 8.5px; font-family: 'Nimbus Sans'; text-anchor: middle" x="506.526901" y="159.24398" transform="rotate(-0 506.526901 159.24398)">1.8</text>
     </g>
    </g>
    <g id="xtick_12">
     <g id="line2d_39">
      <path d="M 545.8434 146.046948
L 545.8434 51.7
" clip-path="url(#p454f59bed6)" style="fill: none; stroke: #e5e9ed; stroke-width: 0.8; stroke-linecap: square"/>
     </g>
     <g id="line2d_40">
      <g>
       <use xlink:href="#m5ba954a1c1" x="545.8434" y="146.046948" style="stroke: #000000; stroke-width: 0.8"/>
      </g>
     </g>
     <g id="text_31">
      <text style="font-size: 8.5px; font-family: 'Nimbus Sans'; text-anchor: middle" x="545.8434" y="159.24398" transform="rotate(-0 545.8434 159.24398)">2.0</text>
     </g>
    </g>
    <g id="text_32">
     <text style="font-size: 9.5px; font-family: 'Nimbus Sans'; text-anchor: middle" x="444.603414" y="172.022808" transform="rotate(-0 444.603414 172.022808)">Association estimate</text>
    </g>
   </g>
   <g id="matplotlib.axis_4">
    <g id="ytick_5">
     <g id="line2d_41"/>
     <g id="text_33">
      <text style="font-size: 8.5px; font-family: 'Nimbus Sans'; text-anchor: end" x="335.465954" y="62.314147" transform="rotate(-0 335.465954 62.314147)">WC coding</text>
     </g>
    </g>
    <g id="ytick_6">
     <g id="line2d_42"/>
     <g id="text_34">
      <text style="font-size: 8.5px; font-family: 'Nimbus Sans'; text-anchor: end" x="335.465954" y="88.786355" transform="rotate(-0 335.465954 88.786355)">LMSYS coding</text>
     </g>
    </g>
    <g id="ytick_7">
     <g id="line2d_43"/>
     <g id="text_35">
      <text style="font-size: 8.5px; font-family: 'Nimbus Sans'; text-anchor: end" x="335.465954" y="115.258562" transform="rotate(-0 335.465954 115.258562)">WC writing</text>
     </g>
    </g>
    <g id="ytick_8">
     <g id="line2d_44"/>
     <g id="text_36">
      <text style="font-size: 8.5px; font-family: 'Nimbus Sans'; text-anchor: end" x="335.465954" y="141.73077" transform="rotate(-0 335.465954 141.73077)">LMSYS writing</text>
     </g>
    </g>
   </g>
   <g id="line2d_45">
    <path d="M 349.260904 146.046948
L 349.260904 51.7
" clip-path="url(#p454f59bed6)" style="fill: none; stroke: #17212b; stroke-linecap: square"/>
   </g>
   <g id="patch_5">
    <path d="M 337.465954 146.046948
L 551.740875 146.046948
" style="fill: none; stroke: #000000; stroke-width: 0.8; stroke-linejoin: miter; stroke-linecap: square"/>
   </g>
   <g id="PathCollection_9">
    <defs>
     <path id="m27349c5dc6" d="M 0 3.464102
C 0.91869 3.464102 1.799877 3.099102 2.44949 2.44949
C 3.099102 1.799877 3.464102 0.91869 3.464102 0
C 3.464102 -0.91869 3.099102 -1.799877 2.44949 -2.44949
C 1.799877 -3.099102 0.91869 -3.464102 0 -3.464102
C -0.91869 -3.464102 -1.799877 -3.099102 -2.44949 -2.44949
C -3.099102 -1.799877 -3.464102 -0.91869 -3.464102 0
C -3.464102 0.91869 -3.099102 1.799877 -2.44949 2.44949
C -1.799877 3.099102 -0.91869 3.464102 0 3.464102
z
" style="stroke: #ffffff; stroke-width: 0.7"/>
    </defs>
    <g clip-path="url(#p454f59bed6)">
     <use xlink:href="#m27349c5dc6" x="516.749191" y="55.988498" style="fill: #2e7c6b; stroke: #ffffff; stroke-width: 0.7"/>
    </g>
   </g>
   <g id="PathCollection_10">
    <defs>
     <path id="mddb42044df" d="M 0 3.464102
C 0.91869 3.464102 1.799877 3.099102 2.44949 2.44949
C 3.099102 1.799877 3.464102 0.91869 3.464102 0
C 3.464102 -0.91869 3.099102 -1.799877 2.44949 -2.44949
C 1.799877 -3.099102 0.91869 -3.464102 0 -3.464102
C -0.91869 -3.464102 -1.799877 -3.099102 -2.44949 -2.44949
C -3.099102 -1.799877 -3.464102 -0.91869 -3.464102 0
C -3.464102 0.91869 -3.099102 1.799877 -2.44949 2.44949
C -1.799877 3.099102 -0.91869 3.464102 0 3.464102
z
" style="stroke: #ffffff; stroke-width: 0.7"/>
    </defs>
    <g clip-path="url(#p454f59bed6)">
     <use xlink:href="#mddb42044df" x="498.860183" y="62.341828" style="fill: #5a6470; stroke: #ffffff; stroke-width: 0.7"/>
    </g>
   </g>
   <g id="text_37">
    <text style="font-size: 7.5px; font-family: 'Nimbus Sans'; text-anchor: start; fill: #17212b" x="523.629578" y="61.081764" transform="rotate(-0 523.629578 61.081764)">1.85 / 1.76</text>
   </g>
   <g id="PathCollection_11">
    <g clip-path="url(#p454f59bed6)">
     <use xlink:href="#m27349c5dc6" x="472.321546" y="82.460705" style="fill: #2e7c6b; stroke: #ffffff; stroke-width: 0.7"/>
    </g>
   </g>
   <g id="PathCollection_12">
    <g clip-path="url(#p454f59bed6)">
     <use xlink:href="#mddb42044df" x="455.808617" y="88.814035" style="fill: #5a6470; stroke: #ffffff; stroke-width: 0.7"/>
    </g>
   </g>
   <g id="text_38">
    <text style="font-size: 7.5px; font-family: 'Nimbus Sans'; text-anchor: start; fill: #17212b" x="479.201934" y="87.553972" transform="rotate(-0 479.201934 87.553972)">1.63 / 1.54</text>
   </g>
   <g id="PathCollection_13">
    <g clip-path="url(#p454f59bed6)">
     <use xlink:href="#m27349c5dc6" x="461.116344" y="108.932913" style="fill: #2e7c6b; stroke: #ffffff; stroke-width: 0.7"/>
    </g>
   </g>
   <g id="PathCollection_14">
    <g clip-path="url(#p454f59bed6)">
     <use xlink:href="#mddb42044df" x="435.167455" y="115.286243" style="fill: #5a6470; stroke: #ffffff; stroke-width: 0.7"/>
    </g>
   </g>
   <g id="text_39">
    <text style="font-size: 7.5px; font-family: 'Nimbus Sans'; text-anchor: start; fill: #17212b" x="467.996732" y="114.02618" transform="rotate(-0 467.996732 114.02618)">1.57 / 1.44</text>
   </g>
   <g id="PathCollection_15">
    <g clip-path="url(#p454f59bed6)">
     <use xlink:href="#m27349c5dc6" x="542.894663" y="135.405121" style="fill: #2e7c6b; stroke: #ffffff; stroke-width: 0.7"/>
    </g>
   </g>
   <g id="PathCollection_16">
    <g clip-path="url(#p454f59bed6)">
     <use xlink:href="#mddb42044df" x="499.449931" y="141.758451" style="fill: #5a6470; stroke: #ffffff; stroke-width: 0.7"/>
    </g>
   </g>
   <g id="text_40">
    <text style="font-size: 7.5px; font-family: 'Nimbus Sans'; text-anchor: start; fill: #17212b" x="549.77505" y="140.498387" transform="rotate(-0 549.77505 140.498387)">1.99 / 1.76</text>
   </g>
   <g id="text_41">
    <text style="font-weight: 700; font-size: 14px; font-family: 'Nimbus Sans'; text-anchor: start" x="311.752963" y="46.039183" transform="rotate(-0 311.752963 46.039183)">b</text>
   </g>
   <g id="text_42">
    <text style="font-size: 11px; font-family: 'Nimbus Sans'; text-anchor: start" x="337.465954" y="43.7" transform="rotate(-0 337.465954 43.7)">Adjusted association models</text>
   </g>
   <g id="legend_1">
    <g id="line2d_46">
     <path d="M 430.648312 33.465228
L 438.448312 33.465228
L 446.248312 33.465228
" style="fill: none; stroke: #000000; stroke-opacity: 0; stroke-width: 1.5; stroke-linecap: square"/>
     <defs>
      <path id="mfa57f94acb" d="M 0 3.25
C 0.86191 3.25 1.688635 2.907559 2.298097 2.298097
C 2.907559 1.688635 3.25 0.86191 3.25 0
C 3.25 -0.86191 2.907559 -1.688635 2.298097 -2.298097
C 1.688635 -2.907559 0.86191 -3.25 0 -3.25
C -0.86191 -3.25 -1.688635 -2.907559 -2.298097 -2.298097
C -2.907559 -1.688635 -3.25 -0.86191 -3.25 0
C -3.25 0.86191 -2.907559 1.688635 -2.298097 2.298097
C -1.688635 2.907559 -0.86191 3.25 0 3.25
z
" style="stroke: #000000"/>
     </defs>
     <g>
      <use xlink:href="#mfa57f94acb" x="438.448312" y="33.465228" style="fill: #2e7c6b; stroke: #000000"/>
     </g>
    </g>
    <g id="text_43">
     <text style="font-size: 7.8px; font-family: 'Nimbus Sans'; text-anchor: start" x="448.588312" y="36.195228" transform="rotate(-0 448.588312 36.195228)">Poisson RR</text>
    </g>
    <g id="line2d_47">
     <path d="M 496.003781 33.465228
L 503.803781 33.465228
L 511.603781 33.465228
" style="fill: none; stroke: #000000; stroke-opacity: 0; stroke-width: 1.5; stroke-linecap: square"/>
     <defs>
      <path id="m2eba4c2cc5" d="M 0 3.25
C 0.86191 3.25 1.688635 2.907559 2.298097 2.298097
C 2.907559 1.688635 3.25 0.86191 3.25 0
C 3.25 -0.86191 2.907559 -1.688635 2.298097 -2.298097
C 1.688635 -2.907559 0.86191 -3.25 0 -3.25
C -0.86191 -3.25 -1.688635 -2.907559 -2.298097 -2.298097
C -2.907559 -1.688635 -3.25 -0.86191 -3.25 0
C -3.25 0.86191 -2.907559 1.688635 -2.298097 2.298097
C -1.688635 2.907559 -0.86191 3.25 0 3.25
z
" style="stroke: #000000"/>
     </defs>
     <g>
      <use xlink:href="#m2eba4c2cc5" x="503.803781" y="33.465228" style="fill: #5a6470; stroke: #000000"/>
     </g>
    </g>
    <g id="text_44">
     <text style="font-size: 7.8px; font-family: 'Nimbus Sans'; text-anchor: start" x="513.943781" y="36.195228" transform="rotate(-0 513.943781 36.195228)">Logit OR</text>
    </g>
   </g>
  </g>
  <g id="axes_3">
   <g id="patch_6">
    <path d="M 60.016875 294.7
L 252.125425 294.7
L 252.125425 211.674686
L 60.016875 211.674686
z
" style="fill: #ffffff"/>
   </g>
   <g id="line2d_48">
    <path d="M 67.1762 215.448563
L 182.679974 215.448563
" clip-path="url(#p5eba12c60e)" style="fill: none; stroke: #c9d2d9; stroke-width: 1.5; stroke-linecap: square"/>
   </g>
   <g id="line2d_49">
    <path d="M 67.1762 221.039494
L 142.707077 221.039494
" clip-path="url(#p5eba12c60e)" style="fill: none; stroke: #c9d2d9; stroke-width: 1.5; stroke-linecap: square"/>
   </g>
   <g id="line2d_50">
    <path d="M 67.1762 238.744106
L 146.525384 238.744106
" clip-path="url(#p5eba12c60e)" style="fill: none; stroke: #c9d2d9; stroke-width: 1.5; stroke-linecap: square"/>
   </g>
   <g id="line2d_51">
    <path d="M 67.1762 244.335036
L 138.769448 244.335036
" clip-path="url(#p5eba12c60e)" style="fill: none; stroke: #c9d2d9; stroke-width: 1.5; stroke-linecap: square"/>
   </g>
   <g id="line2d_52">
    <path d="M 67.1762 262.039649
L 136.263685 262.039649
" clip-path="url(#p5eba12c60e)" style="fill: none; stroke: #c9d2d9; stroke-width: 1.5; stroke-linecap: square"/>
   </g>
   <g id="line2d_53">
    <path d="M 67.1762 267.630579
L 134.83182 267.630579
" clip-path="url(#p5eba12c60e)" style="fill: none; stroke: #c9d2d9; stroke-width: 1.5; stroke-linecap: square"/>
   </g>
   <g id="line2d_54">
    <path d="M 67.1762 285.335192
L 226.351856 285.335192
" clip-path="url(#p5eba12c60e)" style="fill: none; stroke: #c9d2d9; stroke-width: 1.5; stroke-linecap: square"/>
   </g>
   <g id="line2d_55">
    <path d="M 67.1762 290.926122
L 167.645392 290.926122
" clip-path="url(#p5eba12c60e)" style="fill: none; stroke: #c9d2d9; stroke-width: 1.5; stroke-linecap: square"/>
   </g>
   <g id="matplotlib.axis_5">
    <g id="xtick_13">
     <g id="line2d_56">
      <path d="M 67.1762 294.7
L 67.1762 211.674686
" clip-path="url(#p5eba12c60e)" style="fill: none; stroke: #e5e9ed; stroke-width: 0.8; stroke-linecap: square"/>
     </g>
     <g id="line2d_57">
      <g>
       <use xlink:href="#m5ba954a1c1" x="67.1762" y="294.7" style="stroke: #000000; stroke-width: 0.8"/>
      </g>
     </g>
     <g id="text_45">
      <text style="font-size: 8.5px; font-family: 'Nimbus Sans'; text-anchor: middle" x="67.1762" y="307.897031" transform="rotate(-0 67.1762 307.897031)">1.00</text>
     </g>
    </g>
    <g id="xtick_14">
     <g id="line2d_58">
      <path d="M 97.00672 294.7
L 97.00672 211.674686
" clip-path="url(#p5eba12c60e)" style="fill: none; stroke: #e5e9ed; stroke-width: 0.8; stroke-linecap: square"/>
     </g>
     <g id="line2d_59">
      <g>
       <use xlink:href="#m5ba954a1c1" x="97.00672" y="294.7" style="stroke: #000000; stroke-width: 0.8"/>
      </g>
     </g>
     <g id="text_46">
      <text style="font-size: 8.5px; font-family: 'Nimbus Sans'; text-anchor: middle" x="97.00672" y="307.897031" transform="rotate(-0 97.00672 307.897031)">1.25</text>
     </g>
    </g>
    <g id="xtick_15">
     <g id="line2d_60">
      <path d="M 126.83724 294.7
L 126.83724 211.674686
" clip-path="url(#p5eba12c60e)" style="fill: none; stroke: #e5e9ed; stroke-width: 0.8; stroke-linecap: square"/>
     </g>
     <g id="line2d_61">
      <g>
       <use xlink:href="#m5ba954a1c1" x="126.83724" y="294.7" style="stroke: #000000; stroke-width: 0.8"/>
      </g>
     </g>
     <g id="text_47">
      <text style="font-size: 8.5px; font-family: 'Nimbus Sans'; text-anchor: middle" x="126.83724" y="307.897031" transform="rotate(-0 126.83724 307.897031)">1.50</text>
     </g>
    </g>
    <g id="xtick_16">
     <g id="line2d_62">
      <path d="M 156.66776 294.7
L 156.66776 211.674686
" clip-path="url(#p5eba12c60e)" style="fill: none; stroke: #e5e9ed; stroke-width: 0.8; stroke-linecap: square"/>
     </g>
     <g id="line2d_63">
      <g>
       <use xlink:href="#m5ba954a1c1" x="156.66776" y="294.7" style="stroke: #000000; stroke-width: 0.8"/>
      </g>
     </g>
     <g id="text_48">
      <text style="font-size: 8.5px; font-family: 'Nimbus Sans'; text-anchor: middle" x="156.66776" y="307.897031" transform="rotate(-0 156.66776 307.897031)">1.75</text>
     </g>
    </g>
    <g id="xtick_17">
     <g id="line2d_64">
      <path d="M 186.498281 294.7
L 186.498281 211.674686
" clip-path="url(#p5eba12c60e)" style="fill: none; stroke: #e5e9ed; stroke-width: 0.8; stroke-linecap: square"/>
     </g>
     <g id="line2d_65">
      <g>
       <use xlink:href="#m5ba954a1c1" x="186.498281" y="294.7" style="stroke: #000000; stroke-width: 0.8"/>
      </g>
     </g>
     <g id="text_49">
      <text style="font-size: 8.5px; font-family: 'Nimbus Sans'; text-anchor: middle" x="186.498281" y="307.897031" transform="rotate(-0 186.498281 307.897031)">2.00</text>
     </g>
    </g>
    <g id="xtick_18">
     <g id="line2d_66">
      <path d="M 216.328801 294.7
L 216.328801 211.674686
" clip-path="url(#p5eba12c60e)" style="fill: none; stroke: #e5e9ed; stroke-width: 0.8; stroke-linecap: square"/>
     </g>
     <g id="line2d_67">
      <g>
       <use xlink:href="#m5ba954a1c1" x="216.328801" y="294.7" style="stroke: #000000; stroke-width: 0.8"/>
      </g>
     </g>
     <g id="text_50">
      <text style="font-size: 8.5px; font-family: 'Nimbus Sans'; text-anchor: middle" x="216.328801" y="307.897031" transform="rotate(-0 216.328801 307.897031)">2.25</text>
     </g>
    </g>
    <g id="xtick_19">
     <g id="line2d_68">
      <path d="M 246.159321 294.7
L 246.159321 211.674686
" clip-path="url(#p5eba12c60e)" style="fill: none; stroke: #e5e9ed; stroke-width: 0.8; stroke-linecap: square"/>
     </g>
     <g id="line2d_69">
      <g>
       <use xlink:href="#m5ba954a1c1" x="246.159321" y="294.7" style="stroke: #000000; stroke-width: 0.8"/>
      </g>
     </g>
     <g id="text_51">
      <text style="font-size: 8.5px; font-family: 'Nimbus Sans'; text-anchor: middle" x="246.159321" y="307.897031" transform="rotate(-0 246.159321 307.897031)">2.50</text>
     </g>
    </g>
    <g id="text_52">
     <text style="font-size: 9.5px; font-family: 'Nimbus Sans'; text-anchor: middle" x="156.07115" y="320.675859" transform="rotate(-0 156.07115 320.675859)">Poisson RR (intentional / unintentional)</text>
    </g>
   </g>
   <g id="matplotlib.axis_6">
    <g id="ytick_9">
     <g id="line2d_70"/>
     <g id="text_53">
      <text style="font-size: 8.5px; font-family: 'Nimbus Sans'; text-anchor: end" x="58.016875" y="221.393013" transform="rotate(-0 58.016875 221.393013)">WC coding</text>
     </g>
    </g>
    <g id="ytick_10">
     <g id="line2d_71"/>
     <g id="text_54">
      <text style="font-size: 8.5px; font-family: 'Nimbus Sans'; text-anchor: end" x="58.016875" y="244.688556" transform="rotate(-0 58.016875 244.688556)">LMSYS coding</text>
     </g>
    </g>
    <g id="ytick_11">
     <g id="line2d_72"/>
     <g id="text_55">
      <text style="font-size: 8.5px; font-family: 'Nimbus Sans'; text-anchor: end" x="58.016875" y="267.984099" transform="rotate(-0 58.016875 267.984099)">WC writing</text>
     </g>
    </g>
    <g id="ytick_12">
     <g id="line2d_73"/>
     <g id="text_56">
      <text style="font-size: 8.5px; font-family: 'Nimbus Sans'; text-anchor: end" x="58.016875" y="291.279641" transform="rotate(-0 58.016875 291.279641)">LMSYS writing</text>
     </g>
    </g>
   </g>
   <g id="line2d_74">
    <path d="M 67.1762 294.7
L 67.1762 211.674686
" clip-path="url(#p5eba12c60e)" style="fill: none; stroke: #17212b; stroke-linecap: square"/>
   </g>
   <g id="patch_7">
    <path d="M 60.016875 294.7
L 252.125425 294.7
" style="fill: none; stroke: #000000; stroke-width: 0.8; stroke-linejoin: miter; stroke-linecap: square"/>
   </g>
   <g id="PathCollection_17">
    <defs>
     <path id="m6209303431" d="M 0 3.464102
C 0.91869 3.464102 1.799877 3.099102 2.44949 2.44949
C 3.099102 1.799877 3.464102 0.91869 3.464102 0
C 3.464102 -0.91869 3.099102 -1.799877 2.44949 -2.44949
C 1.799877 -3.099102 0.91869 -3.464102 0 -3.464102
C -0.91869 -3.464102 -1.799877 -3.099102 -2.44949 -2.44949
C -3.099102 -1.799877 -3.464102 -0.91869 -3.464102 0
C -3.464102 0.91869 -3.099102 1.799877 -2.44949 2.44949
C -1.799877 3.099102 -0.91869 3.464102 0 3.464102
z
" style="stroke: #ffffff; stroke-width: 0.7"/>
    </defs>
    <g clip-path="url(#p5eba12c60e)">
     <use xlink:href="#m6209303431" x="182.679974" y="215.448563" style="fill: #2f5f83; stroke: #ffffff; stroke-width: 0.7"/>
    </g>
   </g>
   <g id="PathCollection_18">
    <defs>
     <path id="mfb9c5cba82" d="M 0 3.464102
C 0.91869 3.464102 1.799877 3.099102 2.44949 2.44949
C 3.099102 1.799877 3.464102 0.91869 3.464102 0
C 3.464102 -0.91869 3.099102 -1.799877 2.44949 -2.44949
C 1.799877 -3.099102 0.91869 -3.464102 0 -3.464102
C -0.91869 -3.464102 -1.799877 -3.099102 -2.44949 -2.44949
C -3.099102 -1.799877 -3.464102 -0.91869 -3.464102 0
C -3.464102 0.91869 -3.099102 1.799877 -2.44949 2.44949
C -1.799877 3.099102 -0.91869 3.464102 0 3.464102
z
" style="stroke: #ffffff; stroke-width: 0.7"/>
    </defs>
    <g clip-path="url(#p5eba12c60e)">
     <use xlink:href="#mfb9c5cba82" x="142.707077" y="221.039494" style="fill: #bfc7d5; stroke: #ffffff; stroke-width: 0.7"/>
    </g>
   </g>
   <g id="text_57">
    <text style="font-size: 7.5px; font-family: 'Nimbus Sans'; text-anchor: start; fill: #17212b" x="188.049468" y="220.16063" transform="rotate(-0 188.049468 220.16063)">1.97 / 1.63</text>
   </g>
   <g id="PathCollection_19">
    <g clip-path="url(#p5eba12c60e)">
     <use xlink:href="#m6209303431" x="146.525384" y="238.744106" style="fill: #2f5f83; stroke: #ffffff; stroke-width: 0.7"/>
    </g>
   </g>
   <g id="PathCollection_20">
    <g clip-path="url(#p5eba12c60e)">
     <use xlink:href="#mfb9c5cba82" x="138.769448" y="244.335036" style="fill: #bfc7d5; stroke: #ffffff; stroke-width: 0.7"/>
    </g>
   </g>
   <g id="text_58">
    <text style="font-size: 7.5px; font-family: 'Nimbus Sans'; text-anchor: start; fill: #17212b" x="151.894877" y="243.456173" transform="rotate(-0 151.894877 243.456173)">1.67 / 1.60</text>
   </g>
   <g id="PathCollection_21">
    <g clip-path="url(#p5eba12c60e)">
     <use xlink:href="#m6209303431" x="136.263685" y="262.039649" style="fill: #2f5f83; stroke: #ffffff; stroke-width: 0.7"/>
    </g>
   </g>
   <g id="PathCollection_22">
    <g clip-path="url(#p5eba12c60e)">
     <use xlink:href="#mfb9c5cba82" x="134.83182" y="267.630579" style="fill: #bfc7d5; stroke: #ffffff; stroke-width: 0.7"/>
    </g>
   </g>
   <g id="text_59">
    <text style="font-size: 7.5px; font-family: 'Nimbus Sans'; text-anchor: start; fill: #17212b" x="141.633178" y="266.751716" transform="rotate(-0 141.633178 266.751716)">1.58 / 1.57</text>
   </g>
   <g id="PathCollection_23">
    <g clip-path="url(#p5eba12c60e)">
     <use xlink:href="#m6209303431" x="226.351856" y="285.335192" style="fill: #2f5f83; stroke: #ffffff; stroke-width: 0.7"/>
    </g>
   </g>
   <g id="PathCollection_24">
    <g clip-path="url(#p5eba12c60e)">
     <use xlink:href="#mfb9c5cba82" x="167.645392" y="290.926122" style="fill: #bfc7d5; stroke: #ffffff; stroke-width: 0.7"/>
    </g>
   </g>
   <g id="text_60">
    <text style="font-size: 7.5px; font-family: 'Nimbus Sans'; text-anchor: start; fill: #17212b" x="231.721349" y="290.047258" transform="rotate(-0 231.721349 290.047258)">2.33 / 1.84</text>
   </g>
   <g id="text_61">
    <text style="font-weight: 700; font-size: 14px; font-family: 'Nimbus Sans'; text-anchor: start" x="29.279507" y="200.881395" transform="rotate(-0 29.279507 200.881395)">c</text>
   </g>
   <g id="text_62">
    <text style="font-size: 11px; font-family: 'Nimbus Sans'; text-anchor: start" x="60.016875" y="203.674686" transform="rotate(-0 60.016875 203.674686)">Framing-stratified association</text>
   </g>
  </g>
  <g id="axes_4">
   <g id="patch_8">
    <path d="M 337.465954 294.7
L 551.740875 294.7
L 551.740875 211.674686
L 337.465954 211.674686
z
" style="fill: #ffffff"/>
   </g>
   <g id="patch_9">
    <path d="M 337.465954 215.448563
L 472.06682 215.448563
L 472.06682 227.321438
L 337.465954 227.321438
z
" clip-path="url(#p3d39e40023)" style="fill: #2e7c6b; stroke: #ffffff; stroke-width: 0.8; stroke-linejoin: miter"/>
   </g>
   <g id="patch_10">
    <path d="M 337.465954 236.650125
L 423.779514 236.650125
L 423.779514 248.522999
L 337.465954 248.522999
z
" clip-path="url(#p3d39e40023)" style="fill: #2e7c6b; stroke: #ffffff; stroke-width: 0.8; stroke-linejoin: miter"/>
   </g>
   <g id="patch_11">
    <path d="M 337.465954 257.851686
L 526.390039 257.851686
L 526.390039 269.724561
L 337.465954 269.724561
z
" clip-path="url(#p3d39e40023)" style="fill: #2e7c6b; stroke: #ffffff; stroke-width: 0.8; stroke-linejoin: miter"/>
   </g>
   <g id="patch_12">
    <path d="M 337.465954 279.053248
L 464.220133 279.053248
L 464.220133 290.926122
L 337.465954 290.926122
z
" clip-path="url(#p3d39e40023)" style="fill: #2e7c6b; stroke: #ffffff; stroke-width: 0.8; stroke-linejoin: miter"/>
   </g>
   <g id="matplotlib.axis_7">
    <g id="xtick_20">
     <g id="line2d_75">
      <path d="M 337.465954 294.7
L 337.465954 211.674686
" clip-path="url(#p3d39e40023)" style="fill: none; stroke: #e5e9ed; stroke-width: 0.8; stroke-linecap: square"/>
     </g>
     <g id="line2d_76">
      <g>
       <use xlink:href="#m5ba954a1c1" x="337.465954" y="294.7" style="stroke: #000000; stroke-width: 0.8"/>
      </g>
     </g>
     <g id="text_63">
      <text style="font-size: 8.5px; font-family: 'Nimbus Sans'; text-anchor: middle" x="337.465954" y="307.897031" transform="rotate(-0 337.465954 307.897031)">0.0</text>
     </g>
    </g>
    <g id="xtick_21">
     <g id="line2d_77">
      <path d="M 367.64552 294.7
L 367.64552 211.674686
" clip-path="url(#p3d39e40023)" style="fill: none; stroke: #e5e9ed; stroke-width: 0.8; stroke-linecap: square"/>
     </g>
     <g id="line2d_78">
      <g>
       <use xlink:href="#m5ba954a1c1" x="367.64552" y="294.7" style="stroke: #000000; stroke-width: 0.8"/>
      </g>
     </g>
     <g id="text_64">
      <text style="font-size: 8.5px; font-family: 'Nimbus Sans'; text-anchor: middle" x="367.64552" y="307.897031" transform="rotate(-0 367.64552 307.897031)">0.5</text>
     </g>
    </g>
    <g id="xtick_22">
     <g id="line2d_79">
      <path d="M 397.825087 294.7
L 397.825087 211.674686
" clip-path="url(#p3d39e40023)" style="fill: none; stroke: #e5e9ed; stroke-width: 0.8; stroke-linecap: square"/>
     </g>
     <g id="line2d_80">
      <g>
       <use xlink:href="#m5ba954a1c1" x="397.825087" y="294.7" style="stroke: #000000; stroke-width: 0.8"/>
      </g>
     </g>
     <g id="text_65">
      <text style="font-size: 8.5px; font-family: 'Nimbus Sans'; text-anchor: middle" x="397.825087" y="307.897031" transform="rotate(-0 397.825087 307.897031)">1.0</text>
     </g>
    </g>
    <g id="xtick_23">
     <g id="line2d_81">
      <path d="M 428.004653 294.7
L 428.004653 211.674686
" clip-path="url(#p3d39e40023)" style="fill: none; stroke: #e5e9ed; stroke-width: 0.8; stroke-linecap: square"/>
     </g>
     <g id="line2d_82">
      <g>
       <use xlink:href="#m5ba954a1c1" x="428.004653" y="294.7" style="stroke: #000000; stroke-width: 0.8"/>
      </g>
     </g>
     <g id="text_66">
      <text style="font-size: 8.5px; font-family: 'Nimbus Sans'; text-anchor: middle" x="428.004653" y="307.897031" transform="rotate(-0 428.004653 307.897031)">1.5</text>
     </g>
    </g>
    <g id="xtick_24">
     <g id="line2d_83">
      <path d="M 458.184219 294.7
L 458.184219 211.674686
" clip-path="url(#p3d39e40023)" style="fill: none; stroke: #e5e9ed; stroke-width: 0.8; stroke-linecap: square"/>
     </g>
     <g id="line2d_84">
      <g>
       <use xlink:href="#m5ba954a1c1" x="458.184219" y="294.7" style="stroke: #000000; stroke-width: 0.8"/>
      </g>
     </g>
     <g id="text_67">
      <text style="font-size: 8.5px; font-family: 'Nimbus Sans'; text-anchor: middle" x="458.184219" y="307.897031" transform="rotate(-0 458.184219 307.897031)">2.0</text>
     </g>
    </g>
    <g id="xtick_25">
     <g id="line2d_85">
      <path d="M 488.363786 294.7
L 488.363786 211.674686
" clip-path="url(#p3d39e40023)" style="fill: none; stroke: #e5e9ed; stroke-width: 0.8; stroke-linecap: square"/>
     </g>
     <g id="line2d_86">
      <g>
       <use xlink:href="#m5ba954a1c1" x="488.363786" y="294.7" style="stroke: #000000; stroke-width: 0.8"/>
      </g>
     </g>
     <g id="text_68">
      <text style="font-size: 8.5px; font-family: 'Nimbus Sans'; text-anchor: middle" x="488.363786" y="307.897031" transform="rotate(-0 488.363786 307.897031)">2.5</text>
     </g>
    </g>
    <g id="xtick_26">
     <g id="line2d_87">
      <path d="M 518.543352 294.7
L 518.543352 211.674686
" clip-path="url(#p3d39e40023)" style="fill: none; stroke: #e5e9ed; stroke-width: 0.8; stroke-linecap: square"/>
     </g>
     <g id="line2d_88">
      <g>
       <use xlink:href="#m5ba954a1c1" x="518.543352" y="294.7" style="stroke: #000000; stroke-width: 0.8"/>
      </g>
     </g>
     <g id="text_69">
      <text style="font-size: 8.5px; font-family: 'Nimbus Sans'; text-anchor: middle" x="518.543352" y="307.897031" transform="rotate(-0 518.543352 307.897031)">3.0</text>
     </g>
    </g>
    <g id="xtick_27">
     <g id="line2d_89">
      <path d="M 548.722918 294.7
L 548.722918 211.674686
" clip-path="url(#p3d39e40023)" style="fill: none; stroke: #e5e9ed; stroke-width: 0.8; stroke-linecap: square"/>
     </g>
     <g id="line2d_90">
      <g>
       <use xlink:href="#m5ba954a1c1" x="548.722918" y="294.7" style="stroke: #000000; stroke-width: 0.8"/>
      </g>
     </g>
     <g id="text_70">
      <text style="font-size: 8.5px; font-family: 'Nimbus Sans'; text-anchor: middle" x="548.722918" y="307.897031" transform="rotate(-0 548.722918 307.897031)">3.5</text>
     </g>
    </g>
    <g id="text_71">
     <text style="font-size: 9.5px; font-family: 'Nimbus Sans'; text-anchor: middle" x="444.603414" y="320.732266" transform="rotate(-0 444.603414 320.732266)">Has S2 - no S2 (turns)</text>
    </g>
   </g>
   <g id="matplotlib.axis_8">
    <g id="ytick_13">
     <g id="line2d_91"/>
     <g id="text_72">
      <text style="font-size: 8.5px; font-family: 'Nimbus Sans'; text-anchor: end" x="335.465954" y="224.533985" transform="rotate(-0 335.465954 224.533985)">WC coding</text>
     </g>
    </g>
    <g id="ytick_14">
     <g id="line2d_92"/>
     <g id="text_73">
      <text style="font-size: 8.5px; font-family: 'Nimbus Sans'; text-anchor: end" x="335.465954" y="245.735546" transform="rotate(-0 335.465954 245.735546)">LMSYS coding</text>
     </g>
    </g>
    <g id="ytick_15">
     <g id="line2d_93"/>
     <g id="text_74">
      <text style="font-size: 8.5px; font-family: 'Nimbus Sans'; text-anchor: end" x="335.465954" y="266.937108" transform="rotate(-0 335.465954 266.937108)">WC writing</text>
     </g>
    </g>
    <g id="ytick_16">
     <g id="line2d_94"/>
     <g id="text_75">
      <text style="font-size: 8.5px; font-family: 'Nimbus Sans'; text-anchor: end" x="335.465954" y="288.138669" transform="rotate(-0 335.465954 288.138669)">LMSYS writing</text>
     </g>
    </g>
   </g>
   <g id="line2d_95">
    <path d="M 337.465954 294.7
L 337.465954 211.674686
" clip-path="url(#p3d39e40023)" style="fill: none; stroke: #17212b; stroke-width: 0.9; stroke-linecap: square"/>
   </g>
   <g id="patch_13">
    <path d="M 337.465954 294.7
L 551.740875 294.7
" style="fill: none; stroke: #000000; stroke-width: 0.8; stroke-linejoin: miter; stroke-linecap: square"/>
   </g>
   <g id="text_76">
    <text style="font-size: 8.2px; font-family: 'Nimbus Sans'; text-anchor: start; fill: #17212b" x="476.89555" y="223.480485" transform="rotate(-0 476.89555 223.480485)">+2.23</text>
   </g>
   <g id="text_77">
    <text style="font-size: 8.2px; font-family: 'Nimbus Sans'; text-anchor: start; fill: #17212b" x="428.608244" y="244.682046" transform="rotate(-0 428.608244 244.682046)">+1.43</text>
   </g>
   <g id="text_78">
    <text style="font-size: 8.2px; font-family: 'Nimbus Sans'; text-anchor: start; fill: #17212b" x="531.21877" y="265.883608" transform="rotate(-0 531.21877 265.883608)">+3.13</text>
   </g>
   <g id="text_79">
    <text style="font-size: 8.2px; font-family: 'Nimbus Sans'; text-anchor: start; fill: #17212b" x="469.048863" y="287.085169" transform="rotate(-0 469.048863 287.085169)">+2.10</text>
   </g>
   <g id="text_80">
    <text style="font-weight: 700; font-size: 14px; font-family: 'Nimbus Sans'; text-anchor: start" x="311.752963" y="200.881395" transform="rotate(-0 311.752963 200.881395)">d</text>
   </g>
   <g id="text_81">
    <text style="font-size: 11px; font-family: 'Nimbus Sans'; text-anchor: start" x="337.465954" y="203.674686" transform="rotate(-0 337.465954 203.674686)">Post-answer depth</text>
   </g>
  </g>
  <g id="text_82">
   <text style="font-size: 7.6px; font-family: 'Nimbus Sans'; text-anchor: end; fill: #5d6874" x="551.740875" y="340.78" transform="rotate(-0 551.740875 340.78)">WC, WildChat; LMSYS, LMSYS Chat-1M.</text>
  </g>
  <g id="legend_2">
   <g id="line2d_96">
    <path d="M 67.396875 8.188313
L 75.596875 8.188313
L 83.796875 8.188313
" style="fill: none; stroke: #000000; stroke-opacity: 0; stroke-width: 1.5; stroke-linecap: square"/>
    <defs>
     <path id="m1c3590b20e" d="M 0 3.25
C 0.86191 3.25 1.688635 2.907559 2.298097 2.298097
C 2.907559 1.688635 3.25 0.86191 3.25 0
C 3.25 -0.86191 2.907559 -1.688635 2.298097 -2.298097
C 1.688635 -2.907559 0.86191 -3.25 0 -3.25
C -0.86191 -3.25 -1.688635 -2.907559 -2.298097 -2.298097
C -2.907559 -1.688635 -3.25 -0.86191 -3.25 0
C -3.25 0.86191 -2.907559 1.688635 -2.298097 2.298097
C -1.688635 2.907559 -0.86191 3.25 0 3.25
z
" style="stroke: #17212b"/>
    </defs>
    <g>
     <use xlink:href="#m1c3590b20e" x="75.596875" y="8.188313" style="fill: #b9c3cf; stroke: #17212b"/>
    </g>
   </g>
   <g id="text_83">
    <text style="font-size: 8.2px; font-family: 'Nimbus Sans'; text-anchor: start" x="86.256875" y="11.058312" transform="rotate(-0 86.256875 11.058312)">No S2</text>
   </g>
   <g id="line2d_97">
    <path d="M 125.443906 8.188313
L 133.643906 8.188313
L 141.843906 8.188313
" style="fill: none; stroke: #000000; stroke-opacity: 0; stroke-width: 1.5; stroke-linecap: square"/>
    <defs>
     <path id="m3b5d084690" d="M 0 3.25
C 0.86191 3.25 1.688635 2.907559 2.298097 2.298097
C 2.907559 1.688635 3.25 0.86191 3.25 0
C 3.25 -0.86191 2.907559 -1.688635 2.298097 -2.298097
C 1.688635 -2.907559 0.86191 -3.25 0 -3.25
C -0.86191 -3.25 -1.688635 -2.907559 -2.298097 -2.298097
C -2.907559 -1.688635 -3.25 -0.86191 -3.25 0
C -3.25 0.86191 -2.907559 1.688635 -2.298097 2.298097
C -1.688635 2.907559 -0.86191 3.25 0 3.25
z
" style="stroke: #17212b"/>
    </defs>
    <g>
     <use xlink:href="#m3b5d084690" x="133.643906" y="8.188313" style="fill: #2e7c6b; stroke: #17212b"/>
    </g>
   </g>
   <g id="text_84">
    <text style="font-size: 8.2px; font-family: 'Nimbus Sans'; text-anchor: start" x="144.303906" y="11.058312" transform="rotate(-0 144.303906 11.058312)">Has S2</text>
   </g>
  </g>
 </g>
 <defs>
  <clipPath id="pf6d6c40ed8">
   <rect x="60.016875" y="51.7" width="192.10855" height="94.346948"/>
  </clipPath>
  <clipPath id="p454f59bed6">
   <rect x="337.465954" y="51.7" width="214.274921" height="94.346948"/>
  </clipPath>
  <clipPath id="p5eba12c60e">
   <rect x="60.016875" y="211.674686" width="192.10855" height="83.025314"/>
  </clipPath>
  <clipPath id="p3d39e40023">
   <rect x="337.465954" y="211.674686" width="214.274921" height="83.025314"/>
  </clipPath>
 </defs>
</svg>
